<mxfile host="65bd71144e">
    <diagram id="biaLH3bt3VFMD0Se_j69" name="第 1 页">
        <mxGraphModel dx="2691" dy="1073" grid="1" gridSize="10" guides="1" tooltips="1" connect="1" arrows="1" fold="1" page="1" pageScale="1" pageWidth="827" pageHeight="1169" math="0" shadow="0">
            <root>
                <mxCell id="0"/>
                <mxCell id="1" parent="0"/>
                <mxCell id="4" style="edgeStyle=none;html=1;exitX=1;exitY=0.5;exitDx=0;exitDy=0;entryX=0;entryY=0.5;entryDx=0;entryDy=0;fontColor=#FFFFFF;" parent="1" source="2" target="3" edge="1">
                    <mxGeometry relative="1" as="geometry"/>
                </mxCell>
                <mxCell id="2" value="对象原型：每个对象{}都有一个隐式原型&lt;span style=&quot;box-sizing: border-box; min-width: 0px; min-height: 0px; color: var(--color-text-secondary); flex-shrink: 0; font-family: consolas, &amp;quot;lucida console&amp;quot;, &amp;quot;courier new&amp;quot;, monospace; text-align: left;&quot; title=&quot;[[Prototype]]&quot; class=&quot;name synthetic-property&quot;&gt;[[Prototype]]&lt;br&gt;&lt;br&gt;&lt;/span&gt;" style="whiteSpace=wrap;html=1;fillColor=#fa6800;fontColor=#FFFFFF;strokeColor=#C73500;" parent="1" vertex="1">
                    <mxGeometry x="70" y="170" width="210" height="60" as="geometry"/>
                </mxCell>
                <mxCell id="3" value="" style="shape=image;verticalLabelPosition=bottom;labelBackgroundColor=default;verticalAlign=top;aspect=fixed;imageAspect=0;image=data:image/png,iVBORw0KGgoAAAANSUhEUgAAAUYAAAByCAYAAAAvS3j/AAAAAXNSR0IArs4c6QAAAARnQU1BAACxjwv8YQUAAAAJcEhZcwAADsMAAA7DAcdvqGQAAA90SURBVHhe7Z3fax1lGsf7L3gn9M4L6UWpCmGpFlSIP9Zst2mrxFgotbo00iYkotnuIiE0lLZSCbSGkmqlxVpjrdEllNTaQsUVRXulCAHpsoL0ete98u7ZmffHnPd95pkf55w5M3Mm34sP5rzPM3NO5nQ+eZ73OYkbNm0eIAAAAC0gRgAAYGSLcWKJRla/arE4J+fVjLGFW3Tl0jwNCbEk1DErt+j8kVExXj4P0LffbyBaC/j+PnpTzAEAFE0bFeMB2na5ezEOLAbnuHyWtgixImmCGK9cgxABqAKIsbZsojtBpXjnpBQDAPQSiLG2QIwAVEWBYjTxaD/yOm3bZWNzNOjuUzK2Hz3gnCcn4xdU2xvBJKjEuHCY5a3QzE7nHDvn6bx7DsP8uJNTGRAjAFVRkBi1+DzBqaGNK0dNERXj0JEVJrlRmrkUSu0CjZkcu1/oCjOzijSihBgBWN8UIsYtR68LstP5vBrsXoyHaT6QV2xAwqQmSlDlsKoxFu9EjM/QV+PT9IvIIfrHH6RjMji5kWhtI12RYgCAnlKIGJXsWHscwfK7FmOi3HTVaIUpV4daqoniq0PFqIS4gejaJjkOAOg5xYkxp+wqFWOW+OogRosS5D307UEhBgDoKcW10qtLNMDWJSptpdUgpk9aaewxAlAZhQ5f8ghPSzQ+lGkHJT1p+OKIMC5GLVQ1qY7WGHWqGCFGACojU4xaZIH0YnC5SR/JkQXI9yQ7+biOnkyHgjQw4cXiAZm/0QIxAgAC2qgY1wFKjCmtdqlAjABUxboW49iCL0F5kl0V5g9I4HelASiddV4xmn1HS22kaNFVI/66DgDlglYaAAAYECMAADAgRgAAYECMAADASBXjtsf/SJsf3CrGAACgqUCMDeTul2+I6wCAfECMfUooP44bc3OT1gAAMhBjQ+hGjGGsXaTzANAUIMba8hhdvRpK6C90Toz7uLLi4ipTZOc+CF/zFF19SY4D0A9AjLWlGDGWKcUQiBE0AYixtmSLMZSei7vu/rdMIEbQBCDGGqMkc3WEZoRYSJL4qhCiZebtqeD581W5ANSVPhTj83R8+QYtH3+edhz/lG7cuGF4jyZ57tR7TpznTNM7wdo7U/q/YfydqQGaPKe/Ds/vnsuuW8JcN26xfwcy828/FgAXYPg4D+4x7R4bIh0PQJPoWzEqQZ2bNmtGbtHjgGdP0rL72B63fJJ2uMfc+JSOP6vFt7z8qSNcK1FzHD93ghyrFCNfh8QA6Iz+FaMnPVPRRdKT8YXny1RXhDrm5amq0600NSqfvYaysRWcxV2XvgYA5KPRYtSy4/hitC2ze7wrRv01P4chQ8RlAjECUByNFaOWom6TbY5UMeYTY7xirBtpMoQcAWiPhopRzulEjLqV9gVbR7KqRMgRgPw0u2J0HmvZBWvtitE+X86qsczhi4skRi7DJGF2Cj8XAE2hwXuMZrhiCWPeICWvGEOsHH3qMpXmkkoTF4QGQDZ9KEbgIokO8gOgOyBGAABgQIwAAMCAGAEAgAExAgAAA2IEAAAGxAgAAIxUMQIAwHoEYgQAAAbECAAADIgRAAAY2WI8eB/9traBKOC3iw/IOQAA0CDyV4xGkHdOCjEAAGgQbbXSV64FleO1TWIMAACaAsQIAAAMiBEAABgQIwAAMNoS46aTG4nW7qFvDwoxAABoCO2JUbGJ7qiP72ykK2IcAAD6m7bE+ObFeyBEAEDjwR4jAAAwIEYAAGBAjAAAwIAYAQCA0YYY9TQaf0gCANB0ssXo/HUdVIsAgPVAW600AACsByBGAABgQIwAAMCAGAEAgAExAgAAA2IEAAAGxAgAAIxixHjwB9r/2a80OCzEEnho9tfgmP/Q/tMfinEAAKgKiLFsdp2l7atf0eCEEAOV8uKuH+mbv/2Lvtl3SoxveuKmjkfcpFkpD/Q9lYlx3QIx1o+tn9DNQHQ3d31CHyWJUUnxR1rc2lqb3Qc5NhWIsWwgxppxKpChFV74tSxGJUG+LsgSNIN8YlTiC9pey8Vb9FAs/gM9svlDGnbyRmdPOOfxY3JOyUws0cjqEg1snqPBQFYjhu1HDzh5B2jbZbOm8m3eddq2yzlXwJaj1514wOJccswjfA3uufzXIz1X+Rym+ZVbdMVhfjw7R7NCMzudvPELfnzhsHOOKskQ4/gn9KKzpltvVIxNJFOMei/QrQZP0ODFUGqhCM1aJE4nL7OK1KKsXoxaPlEFZ9ZaFZ0Wo85rCWxgMXh8+SxtcR97gjNyc3IUWRWjibtytlKtrsocpZlLF2jMWRs6ssKEZ6ToSC6eY9fcc4Xnrosck8Vo2+1IhGa/8eauqXgu6HsyxJggr+FbNBqsD9v/W6AoQS3QZPHVR4y+cIwIo2rPPGaC07IyIkySnTo/q/YyxMiFq+GvqQbsnKfzgQijqpE/Fte0PGOVpqogffFm8cafDtEv49Myzz8jHpNNihgVU7Q4HsoxBC10k0kXoxKgVPUx6SVUh4+cDqrIxKlzXcQYb1N9OeWQkjoPb4dDdNXoSTBVjPq5/FZeo0QcE2aJ8PbXwKUXrxgd4RlRSueJtduVkKNiNLHMCTboa3ooRtNy96sYecW4nsVopHj+yGhrLVYNmpY4TXZSVVkrksRoKkW+btrpj55w1kAj6GErnSW+uoqRyymHGBveSsf3BQO45HK1w7qq9ATbIeW20no9tp9oqkiIsXlkDl9UO+xJz1SC7mRaEKM+zhnQxEgX49iCqTp6uSkviCs+RMkjJZMjDV9ixyWtG9RrkoYv8cq2SLT8gut9aZ6GeFxJz6n+nJbYF2N2O2yfp55VY3IrPas+s4jPMa4XMsUYEv2WioW3x6aC9HL4R3pipInRact6LsZQaA5dVGtaqi2kllhhqsZWLmvDs+I9IPpBJInRjStCAcYHKX5OC14hRhJ2qXAqrQUnIYnQBVJsKrnE2Bu0GKN2vArEVhp0gthuR+t1GKwAkJ/SxBhWna4EdRWa1mqXAMRYGLpajIsxaR2AOlNixWj2JqN2uxMpmv25DHYIaxw1/OhDMdoPe6eyvEp/ltY9iv6+pal0QEJrDkCdqbCVBgCAegIxAgAAA2IEAAAGxAgAAIwNWx8dIgAAaCK///5fhRRLA2IEADQWiBEAABgQIwAAMCBGzus/OR8mDzjzmZxXEEPvvkqL//x7xFvv7hbzesXKFxuIvnhYjKXx5Jng2nzwNT0mxJJQxwTXdM+xBTHeaCZeop+/fIPuLu2R41WQ9Zrevp/o9oN0Wop1ydP7ZmhsX/q1eHxkmsbGXqbHhVivgRgTWaDtH/RejC1eoNmSxXj68r1Ea/fTihDLAmJsk34U46ODdPt28IOzaDk+9TLtm5ym4aeEWMQeGp2codEdUiwP+vixxOfZTcNjYbzFvpHWvQcxJtJwMYbVwNq9dPuvQiwHnYhxXdOXYgx5mP69toH+d3lQiHVGrkpwx0Qgqwl6WoploKrR4Njh8HlEMRopuhWrknVLjhBjIk0WY/f/2CHGdtlD3wUS+vlseR1BNjlfU5c/RH3yVIJaXG4FlxclXSM89bUkRrFi9WXZczHa9klzl7bv5Tmf0XNRXMjZ+zXtUWtGVDYvJiwWDxFu3MeO3fVzEsWXJUb+fNL31g4ZYjxx0NuLXLy+n4Z4zuR+esvNiThIe9089Q89vYXOuk7qfQ3XvD1Z6b2zsRbPve7ktMHIiav+H5pYOkMjWTmWxTkn7xWaW3LjV2muq/euCLSk7jp8dyw7R/MafT7h5B075Me7rlJNS93BXnSMPJVgrlY7m3QxcjlrYZdQMVpx/ERPumtnHFmZG8fdc7I3ZHTzODdXtGZuRvcGy1PBaEm7r8dIWTwuTYz6OG+vTL2mbuSYLEY9oHmVpibt2m6aus6EZ6ToHr/3Y0GKAWrgkrJvlOc6RT/w+Frae2Dey47EOH2JLpx4xVmbo1NMeFqKruTiOXbNO1dw7mrluJs+Xz1E7ztrx86+xoRnpOhILp5j19xzhefuXo5qP7rrvUahhRVQrXABQ5dEMQbodnvGiNDuN7aE3TMxasGli0K+kZiQxJuJiylNYoakmzJRaMnnVN9bwuvufLCQJMaEdSPC2RPmsaooXXkmrJmf/oltdM7rJL536tiU97wbMQpMLgbSc6pG/lhaU/KMVZq6gvTFWzFm/y+qGvljcU3LM1ZpqgrSF2/bFNFOlzJ0aZEmRoWqXrUguax7JsbM6iFFJJ54cokxwG3ppOdVcbcKsuhzxW/WZDFG1ZJEmpxTSRMgl1uIrhqj/KSKMdZyZ+wv5rxO8vubdC0NXYmRt78GLj2hYnSFp0TJz2HxKsuS4e2vgUsvXjE6wrPDFBHWbrdLAWLMUwlqmXU2dOFkV4w2Fp9gN0eMFpOvReXc4EWLMfV764QuxWiOT91bVGRUjN2IMUt8HYvRSvESTTrrsQpRtcSO6ATZSVVl5RgpekOQWDVoWuI02UlVZVHk2JdOp7dDF4lEMapKka+bdtqIu2di1K20dIO1kAXDhNSuGC38uKSbUomgg1Y643trn+5aabUPKQ1kBFL3GHNeJ/G9S7yWho7FKOwLBviSy9cO66rSF2zVxPcFA7jkcrXDuqrsxeS76z3GEoculiQxJlWlbkXbMzFaefk3TyAbd/iibiRfcFo6zs3VqRhjN6kRnSc08xrF9jdZjPL3loQZAAScmpbiliQx2iGKMHxxRKgHNFKFKJDaFuW7TnExpl1LQ6oY066TqRid6i9qiZkYs9th8zy5qkb7mno8mFHSc6o/pyX2xZjdDmvJFl01djuVzlcJKjFlDGbaIbFiNFNp77nMWglT6RB7k1mEasLcLK0cVonlEqO5KT3kykXd0E4el6sWs5+j4efL+Zx7z9CFxBveSk/Clxz/1cHFj1/wzhPJ0s0xRAOaCL3PmPYPvZPrlPqDKiRNjBnXyY0rAgHGBik8J4JXiC0Jt5Dk5+xr9nj/8f0l3iLHByl+TgteIVo5enQzle52f7HMoYuVnoQgQjfuirvHYgRlIQ9akj+yU8iUsV2UGOUfWN2jZRdvpY0EOxWb2besemItttvRepeDlVS6/2WAsocuRQAxNoJ4a52+rlF7jT2U45NnfAnKe8oFYarFmMCS1nMhD32qQFeLcTEmrRdDEb8rXf7QpQggxsYgTaUDYi23T6d/XScfbLuhV1K0SFPpgPS9XRk9pAmOr80EW5pKB6y+RMfE/AIIu4quP9Tdn0CMAADAgBgBAIABMQIAAANiBAAARsdilP6fqgAAsJ6BGAEAwGOA/g9+URUmPbSAEgAAAABJRU5ErkJggg==;" parent="1" vertex="1">
                    <mxGeometry x="390" y="143" width="326" height="114" as="geometry"/>
                </mxCell>
                <mxCell id="7" style="edgeStyle=none;html=1;exitX=1;exitY=0.5;exitDx=0;exitDy=0;fontColor=#FFFFFF;" parent="1" source="5" edge="1">
                    <mxGeometry relative="1" as="geometry">
                        <mxPoint x="400" y="410" as="targetPoint"/>
                    </mxGeometry>
                </mxCell>
                <mxCell id="5" value="函数原型：&lt;br&gt;&lt;span style=&quot;box-sizing: border-box; min-width: 0px; min-height: 0px; color: var(--color-text-secondary); flex-shrink: 0; font-family: consolas, &amp;quot;lucida console&amp;quot;, &amp;quot;courier new&amp;quot;, monospace; text-align: left;&quot; title=&quot;[[Prototype]]&quot; class=&quot;name synthetic-property&quot;&gt;1、函数也是对象，所以有隐式原型属性__proto__&lt;br&gt;2、函数因为它是一个函数，所以多了个显示原型属性prototype&lt;br&gt;&lt;br&gt;&lt;/span&gt;" style="whiteSpace=wrap;html=1;fillColor=#fa6800;fontColor=#FFFFFF;strokeColor=#C73500;" parent="1" vertex="1">
                    <mxGeometry x="-140" y="380" width="420" height="60" as="geometry"/>
                </mxCell>
                <mxCell id="12" style="edgeStyle=none;html=1;exitX=0.47;exitY=1;exitDx=0;exitDy=0;entryX=0.5;entryY=0;entryDx=0;entryDy=0;fontColor=#FFFFFF;exitPerimeter=0;" parent="1" source="6" target="10" edge="1">
                    <mxGeometry relative="1" as="geometry"/>
                </mxCell>
                <mxCell id="6" value="" style="shape=image;verticalLabelPosition=bottom;labelBackgroundColor=default;verticalAlign=top;aspect=fixed;imageAspect=0;image=data:image/png,iVBORw0KGgoAAAANSUhEUgAAAeUAAADLCAYAAABQ4YuQAAAAAXNSR0IArs4c6QAAAARnQU1BAACxjwv8YQUAAAAJcEhZcwAADsMAAA7DAcdvqGQAACbVSURBVHhe7Z1d7yXFfaD9FXydu1whLbKXiJ1NPAhWzEXM2A62RmAkR1bW4NhB9mBZ61gOGs+YEDFopInWGSxIAI+FCSGIrDxymCUki7UrQcRdrizL3r2JLC5X+QSdrrfuevlVdZ1zuk/XOee5eDTz766urqquqqeruk/XR+648+4OUs7+l092d/7H3xb3AQAALAFSzoCUAQBg3yDlDEgZAAD2DVLOgJQBAGDfIGUAAIBGQMoAAACNgJQBAAAaASkDAAA0AlKu5euvdQ+/9b9HXn+h+5gUrime6s7p9L7dnf2ctH8tzndP/p/vdM8PXOz+6FEp3Iw8/pvdv/38o937j0fbr/1G133wm92z/rZdUXH+/COaX13ztus0mO3/9srHw2MAAHpWlvK5XhZf6h5wPHC+u1MMtzKfe6H7dC+3c18X9q1BdXpalPJ93R/d7kX82nlh31Lc0f0qK8KPd+9/0ItyLjFb8QYyjqkJAwAnyXpSvut8d38v4rNn3Laz3ZkH2hTzx55+u62RcWs3CZvw6EPds/sYGQ9Y6d6+Q9jnKEl7M5595aNVgn/j9lSaAOAUWU3Kd93fC/j+c+H2RNRtcPfzjU1XH7KUrzy6n+lqi5bkz3+je0PYF6CnnIXp7Q1BygCwCytJ2Y6KYynb6ez77zkbbV+XopT1s+ZoejiWpv5bhfnD7uzrajrZ8vxT4zEDUZi3Xuvutvv0iH3YHjOGG6etpX0+8bli0Zv9n376D6Nz5+KrYFLKdnrbe+b85JU03L3PXQzCyNPhZpRcNwKuGVFPg5QBYBcak7LZ3oSU4xe7IgZ5VUtZOi6WoJVpcAPQb4vlvcFI2chUkqg9lx+3TZOSsNnmSXsIJxw3SfxiV8QgVBvOF6yW+He6Z5+7b9h24TV13KPdBRfGHXf7oe7eYVvPhs9ua4VaAikDwC6sNn195z1f6B743Be6M3fF2451pCwLeBSgPU/NKHQGKee2h3m1Uo4EvNN0fmGkbEa/vmwNWsJOuPqZtDB6luLVU9IVU9eOnaewNxiZzzRdDgDHxXovevU4CTvuv+dcOyNlj/1IWRagyAxS1nmSzqXz48LvV8pavtI0tD7Gytr/f4AZLfuyrn6e7NhalHbqe+NjzQtmG6URAI6aVaWcYp4pH9SLXkh5M/Yo5e1GyrsIsv659MY3DABwEjQlZT1ybvAnUfuR8gaym0HKJzF9zTNlADgwmpGy/olU9Iy5FYoSygg4eImrUsrDsYEE+3DJiNYcWzOqzslXPJe+wfDTuV8pO+FKL3qNEnZvZ/vyFl4Q02zyRjVvXwPA+qwnZfub5OGZcvImdjtMSciIrw+jUQI00txYyt72MD5/v8WTfxIu2TcSni8+VzTi37eUNVawA4Wpbi+c/3a2j5kmrnjWO9OLV0gZAHahsWfKAHNTMwLmi14A0AZIGY4ftxCEKEEr7R2fJQ/oEffUc+z5bgIA4LhAynAaaDEL09NKonMJ2WKmzHvRx3J2NwcKRskAIICUAQAAGgEpAwAANAJSBgAAaASkDAAA0AhIGQAAoBGQMgAAQCMgZQAAgEZAygAAAI2AlI+Sv+4e/B//v/uvA//SfUIMNxN20YgBafnFJZlacvHxf/HKoueVd7u7pHBwklz6i290v/7Zk90v/uK+7o4vPdz9ov//r3/6cHdJCAszEJTxfd1Pf9r//2ff6H76pTCc+hTtKX71blkpn7lgFpvILsd4tjvzgLcoxecu0FnOzF2X/3V5KQ/YFZz2KeWp5RkffLd7pBfxgzsuNHHyiIuqHAnffUxL+f3vqr8/1b1/bFK2EjT5awFbxj/+lP77xR/LUnZt+9TEvJCUz3Vn9cpP5410RSlbIXurQ5nlGxHznBy3lKe/Ia3zz8h4d05NylYYR8FBSPmx7sUkXM9Mq7cdEgtI2cj27Jnx/5KU77znC4KAjczvv+estw124ZilrFdamvhu9Se+z3T1LJyMlO10KlJekFDK5vFBRso9Ne38mFj4mXJeynpUHK+hPDndvQ66Yx+eSf5rd+7BOEz8DDcKo6dQ1bar3blXvHDf/2svDoORqBdGOt8Gz0inpBzmbddp3ikp16yVHIfJhTWj5PJqTDVSnrh21WH2yNdf6/x1u+W1ss1a2HqbDu/CxWtmx+uB93jrZyf7AuK1vqfW5wZzA6AEZMVk0c+zh3DmxkBvszcMhnSK1z0PH/BuJpJ9AbEEw/SI08lrMfWI6s5vdX/5zjvdO++81D0h7j8sVpKy2e6PiPXIuQ93lziCXgsnUV9q/bbve528fWb5yOWrdv8o1kFwNkywzYo1kKDeVu7wTdx+GCmNI3kp2+P8G4Odn78WpPzoQ92zvVyffW7sfO597qIW7pNXXDgrZO94E0aQd2laK75piYivS821K4bZN55kh5Gr3TaOZI2UTbhRnnc/3//9+gvdx/y/A7lasXphNFMjZbvfvzFwQj/K0fW2eJIdRq7BSF3hXn5SjPLU07zes+502teKNX4ePjVStvv9GwMn9DZG12Z51fxjKqS8ATkph9PU/qhZntZeh1SAKfJILBKeKDsz+ko7+9JUc3qMpiDTbJxaXOl2nR9hBF9HXsoXXuu3336ouzfYHoW34h4lndnWo5dHrJjSKo2Ua65d1fXdN4mAFVbCwyjX/h3J1YjSSjgnWh1/NMqdkHIse0OcJkgFrIinzO3fkVyDad6caHX80Sh3Qsqx7A1tTeOf0hT2yiPlc9kRcwvT16UO3WA650SSPVqG7thKKYfTpMLNgI5HukmYSIcgX7PdnSuimOcSOSmb7f4o2aFHwoOscyPlR7sL9m9HbSPNX8Oaa1d5ffeNJM2eUIwVQtTxxFPQCjNaDgRclLI5Vzh9btA3AYmsTxhJmj2hGCuEqOOJp6AVZrQcCLgoZXOucPrcoG8CElmvA1KejZyU+05Nv2ntXgiLtp+slB0mXifJ4bjZpVwalW/DrlK2xysxD0jPnecYKR+plOORMlJui5KU45EyUh7QUr59h7jv2FhNyofw9nWNuKqmNzeWsiOKZ/bp6/LU/ObkpFw5fa0/QpKOikUqfypRurGquXZV13ffiFKOxVghZaav948o5ViMFVI+qenrqWfKx8VqUh5/y9zy75TtdHLQKfcdsv+il32pyBelEaEnvK2lnIbRkghkagWREU/+xsIeVzla/sqNd7s3bvXc+La435CXsvvqV/qilzcS1mHkkXHK9G+UFSUpV127mjAD3+6uqzLquf61eN+MCNJMX9iqEaINI73olRyX227RaZJe9EpH9HNy/nu3KuplQwjSTF/YqhGiDSO96JUcl9tu0WmSXvRKR/SrUP329d91z1yQ9h8Wi0jZjIKVYFPC6WorZkcj09YhTl4OoTO20h3DRKKrlLIRbogkbSMFL1w8YkvSMxLGF+fNkI64H+kuvZqXspGrmmqOiQRrX9oa96ejYj2iDsIYpKlvPaVV+rxmT1HKiqlrVxtG8dnr3Q/3JmUlU48dRqlG6CPSNLTGjpbHsNHU99T+JfjaTVMvb93qLn1W2N8aVoABO4xSjdBHpGlojR0tj2Gjqe+p/Ssy/Tz5890zbyopv9O9+cznhf2HxcIjZYB6ci91JSPqgbrR8tEhTl+fKu6G8Wb3FXF/Y4jT15Cl9ote33gJKQPMjRkl50bPmWfNutGemJiR8ogdKf/we4/I+1sDKddT/e1rN1Lmd8oAMyO9fd2TvCAWocVcnsZelWRaV+J/dZ8St4foF60OUMruQyJF3nyr+4y0PcDle0/P75NpXYn/1v1fcXuIftHqAKXsPiRS5H9+tft/0vaAzfKtpq2nhPzEi2ba+p03r3W/J+w/RJAyAABAIyBlAACARkDKAAAAjYCUAQAAGgEpAwAANAJSBgAAaASkDAAA0AhIGQAAoBGQ8lFiF9KY+lbzXNjFJgakBSmWZOrjIXZRiYHSt7Dh5HAfx9DfjXYfC2lkycKjJChjt7BG+mGRmo+HHCPLSvnMhYqFJtyiFF/oztwl7YddyK8StQSFVaKWYmoFGXExkNNBXlJxCyaWbjxo7CIRZmlDu6JSA1KWl1TcAivB3NKN+ydctcosqiF87av6M5vHxUJSdssyni8s3dgLwy7VeEavKoWUl+C4pTy9IIXO/wmPjJFyBZKUK1ZoWprTknJmVaraBSmOiAWkbNZQNks05tdT1ss72rWUzVKPSHkJjlnK00u6VSzdeOQg5QoCKbezuP+pSNk8PsgvFVnTzo+JhZ8p56Xs07qUw3WOpcXt42e4URg9haq2ResXx+sg9yRrJUvn2+AZ6ZSU4zWcd5vmnZLy+e5J/9mzuBxjHCYX1oyS8wufG6alPHHtqsNMYdY3VmsVh4szRGsO68Um1Da7HrILl6yL/FR3bohD4S9QEe8LiddLThaL8M5VXkjCpd2eT1i7Obgp0GJX6ZzKW0+8ZnTFutDLYUStnjmHizNEItFyV9vcc1JLIngrpQF/6jbeFxKvl5wsFuGdq7yQhEt7fmYguCnQYlfpnMpbj73JKYbZhKlHVHd+q/tLtSgFq0TVcOhSdhL1pdZv+77Xydtnlo9cvmr3j2IdBOctkj9ss2INJKi3lTt8E7cfRkrjSF7K9jj/xmDn568FKT/6UPdsL9dnnxs7FbNO8ne6J6+4cFbI3vHZtZRL01rxTUtEfF1qrl0xTBWeiIaRq93mj2Q9GQ3yjEep9m9frk6e8Uh2aqSs9wc3Blaw8TETI2Vz/ugGw8YVp1vKW5oXPy5bTquJ2RPRMHK12/yRrCejQZ7xKNX+7cvVyTMeyU6NlNNpXyvY+JiJkbI8UjVxxemW8pbmxY/LltNOYv549/4HpcdUSHkDDlvKqQBT5JFYJDxRdmb0lXb2panm9BhNQabZOLW40u06P8IIvo68lPWayMkSjFF4K+5R0pltPc++8tGqKa3SSLnm2lVd3yoEASviZRitlEP5Gbk5ccmilcVVlHJOtHGaSmGj/UW5CmEUYRojkTt0mmLp7wtBwAotYW+UG0yDO4zcnLhk0criKko5J9o4TaWw0f6iXIUwijCNkcgdOk2x9DfjlKawkXKBUoduMJ1zIskeLUN3bKWUw2lS4WZAxyPdJEykQ5Cv2e7OFVHMc4mclM12f5Ts0CPhQda5kfKj3QX7t6O2keavYc21q7y+VWRGe7HsJCEGmHhisSm0BCMBF6WcFZ0gxikp94TnEtKZiSOQtw3jZgtCSuWyJJnRXiw7SYgBJp5YbAotwUjARSlnRSeIcUrKPeG5hHRm4gjkbcO42YKQUrlMg5RnAylvJmWHiddJcjhudimXRuXbsKuU7fFKzAPSc+c5RsotSTkeKR+mlIO06/BR3CUpuzTWnGfvlKQcj5QPU8pB2nX4KO6SlF0aa86zJVrKt+8Q9x0bSLlAjbiqpjc3lrIjimf26evy1Pzm5KRcOX2tP0KSjopFKn8qUbqxqrl2Vde3ioyUYzFOSjknWjn+opRzApTSUCXL8YZBiTa5ccjEodM4pDucqm+DjJRjMU5KOSdaOf6ilHMClNJQJcvxhkGJNrlxyMSh0zikO5yqn4+pZ8rHBVIuYqeTg06575D9F73sS0W+KI0IPeFtLeU0jJZEIFMriIx48jcW9rjK0fJXbrzbvXGr58a3xf2GvJTdV7/SF728kbAOI4+MU6Z/o6woSbnq2tWEGfh2d12VUc/1r8X7BGlaSQUCqpCyCRMeZ6aA0+Ny2w02TcGI1kgxuXnIbg8x51NxCucUpCylz8VRM1o+/71bFfVyVwRpWkkFAqqQsgkTHmemgNPjctsNNk3BiNZIMbl5yG4PMedTcQrnFKQspc/FMetoufrt67/rnrkg7T8sFpGykWwvYwHz++Weu8539wv7Nfb3y23g5OUQOmMr3TFMJLpKKRvhhkjSNlLwwsUjtiQ9I2F8cd4M6Yj7ke7Sq3kpG7mqqeaYSLD2pa1xfzoq1iPqIIxBmvrWU1qlz2v2FKWsmLp2tWEUn73e/XBKylpYI1WjVAkruDEuaRraoEeiXth4FDq1f6DqnAV5J8fn4vDl7iHF+bWbpl7eutVd+my0bzacAEOqRqkSVnBjXNI0tEGPRL2w8Sh0av9A1TkL8k6Oz8Xhy91j4oagxPTz5M93z7yppPxO9+Yznxf2HxYLj5QB6sm91JWMqAfqRsttIE8vHx/C82iHMFLeHXfDeLP7irh/DuTp5eNDeB7tEEbKe6H2i17feAkpA8yNGSXnRs+ZZ8260R6CmE9ByhN5XELKdqT8w+89Iu+fhVOQ8kQe15By9bev3UiZ3ykDzIz09nVP8oJYhBZzeRp7fY5Yyv60dCl/s0q59Px+bo5Yyv60dCl/K0hZTVtPCfmJF8209TtvXut+T9h/iCBlAACARkDKAAAAjYCUAQAAGgEpAwAANAJSzvDb954HAADYK0g5g1RYAAAAS4KUM0iFBQAAsCRIOYNUWAAAAEuClDNIhQUAALAky0r5qb/t3nvvve69f3ix+4PSfkcu3ApIhQUAALAkC0n56e5vlGRff7F7/h8ysn3sxe4f3/un7vnH3DZ3zNNhuJWQCgsAAGBJFpDyV7WI/+ap8f+1I+A/eP6f+hHz33aXhX37RiosAACAJVn4mfI2UvZHz+shFRYAAMCSNCXly6/3YRkpAwDAidKOlO1LX//4/Ffl/XtGKiwAAIAlaUPK+qWv+hH1PpAKCwAAYEnWl7ITciPT1g6psAAAAJZkZSnbn0E1JmSFVFgAAABLsqKU7b4GhayQCgsAAGBJFpGy+WmTEm6K+f1yOUwLHxCRCgsAAGBJFh4pHy5SYQEAACwJUs4gFRYAAMCSIOUMUmEBAAAsCVLOIBUWAADAkiDlDFJhAQAALMlHfvf8gx0AAACsz0c+9lu/0wEAAMD6MH0NAADQCEgZAACgEZAyAABAIyBlAACARkDKAAAAjYCUAQAAGgEpAwAANAJSBgAAaASkDAAA0AhIGQAAoBGQMgAAQCMgZQAAgEZAygAAAI2AlAEAABphOyl/83r3Vz94uvt99f8vPt3deOlm91ci17uL9piL1+J9L3SXrvTxBNsc43FroNJ69Zvy9tq0XbzW5++L8r41+e7tX3UffvCjcdvlt7tf/vLt7rtemJAfdf/84QfdS9K+mx90v7z9Z+l2OByq23LPtT8ejrlx5ctpXBbdfq6ouOK28sfdVaH9qPCl+Axf7i79IN+mfv/KC2KbNfTndXkEaJztR8p+YxZRjSiU8tho4gYmN9Z1CNM9brMdh5Rv1ZlF2xIpq+Ncp7YaqWBf+uDD7sMPU/75pnecErc7rhfxIHVPykr2CPpAcXVaqMdBGK/+6hvUTH0e2noSX66dq+3yjfB4jCTlMb68lKXjANplcymXGm5AKDfdiIM7b9VQTGMMt/esJC/VsMO09Gn8prrjD+/kTV68zuVApKzEqWXrRsdatgUB2/2jrPvtSsrBtpEWpCxeQ3cdhmtgbrLCcAZznfMdeT5+G6fQNtQxwUhQpcOLY3qUuCeiehzcSCf1N2zfPsFxAZ6UozKICc4r7Dftb0rK5pqE2/PpBmiB3aSs/p80Fr+TGit/2FDVPhXOa6SOpPHvmf78QyepO4Tr3aWkI3bbbF4PQcpKsHqE+2fdW79UIlb/Kvmqf3/VvXXZhvnQ/l+Ko3H0zVIsxb7cgw4+vga6DsedtKuf/jZDItgBc8wNN6Pi7QuOsXVqPF9/3JWV6oVOi6nPOj22Hl8U6vvFTP1Nb1JSbly52pdNuO3qtXx7GAXr9w/SNSlJWYWvuDkAaIzdpRx0gn7DUf8fK74ZXfqocGPjGKSdafz7QstUjY43SYPu2OP8CayYr2CaWsk5eB6sprXVvnBq25/uNtPTb9tweYJR9x7Rcpgq3z1I2dTp8NjgmJXrd4rXTqP2HNxID+lW+TP1WRZedFyAIEPvnMlxfVleHMpRuiZjfKGUTRrDNKjjo/YY9F0AbbA3KcuMjaoJKbv8qH91GqKG7KUr3zkb2nym7EbH3jY3Hf3B23oEHYp1HEUPU9/esdK2dTDXSRaBx16k3P9fncdrF+ExRhilurNfvHaq6//17mosr554ZBtKMCS/L5KyKqeg7G17s+dR8cTp8Llx5WlByjaOJLxwPZP+C2B99iNl3fiEhtI39FHKXoe2lrzidOoOyqZL5VWly6bP72j9/zsSKccd0goEL2MNMvbexNaY6e0P7TS2GmEr8bp/VRxuVJxQfIt7Sfx6Z/A79OHaSHVLXdfkuqTxORJRDPU/PEbdZObrhwobpW01vHZaklRUdipPw020Xx69/K72dV/Ol7kh0fnu235a7gZ5pC1dk7FNDekZ9tWx7XEAS7H3kXLYQblG5R0ndZz7xglYp8vrcNS2Q5WyfqacGw2bbdKLWkbkP0pGzIPgldyV2FX8q0pZHikH12YmKcvCiY9R19v8XT7G1qtk375Qaejz35eDGg3r9qzLRK737jiVJ7+843IO82vzqeNzZe1vixmvh4o3HyYv5fxxHquWO4DM3l70co3GbyxBZ6m2tdJIhnz1HY3raNU2r3NS+XDp9//vaE7KemRceokrHCEP27V0PwieLbcnZVuvhPoTXJu9SrlHna9vK+rFKfkYxcr1Qp9f1fU+Da58/DbutkVlp8rBtOc+f/bvIY/S8fq4XF7zZTDG65evCz8e59KTHjduC4jyA9AKM4+UfUIpu+m8pLGoxuFErv6fjW8P6LSYGwbTYFUe7N9um23Mfj6kDqDF6WuHfunLvuyVGyEP6Deyx6npVqU8yCXqaINrI3XES0q5R9V7VXfGunI9DKPr3Ir1wmvDw7SxLhO53rvjVDno58z22LBcvLreHyduD8i3jTFeScphOKQMx8BuUi7iNRzb8V2NOijdYcVxBY14JVR6dYP1OoJhmwnjN3r1/6EDKyJ3PPvCvYE9Tl0rxunrrKCdmPvR8lvNStngJDjg1y+pI7Z1M7wu0c2YxoSRrrWRQU7kqh14s0L27/H4devEgN+u/f87orIz5Tym3S8XlVfXPtS/oyxz8s1t99uZKV/1vFqfJ0rfcEPhHTeWcQakDA0yu5SDTtFVel+0uhP0wois3FGpNOq0247WfQ5UbVOdk02n3wlMk+949oF7UUvaN2J/GqUkq/4eZNwTjZSD4+yIezgODo50ZsdtH9vleGMx3oCM8ovrtruxMeGGeHTfEd+YCCR9jHTT486hCPeNMvfDe0g3aAANsLmUAQAAYBGQMgAAQCMgZQAAgEZAygAAAI2AlAEAABoBKQMAADQCUgYAAGgEpAwAANAISBkAAKARkPKR4z6fuQZSegAAIA9SBgAAaASkDAAA0AhIGQAAoBGQMgAAQCMgZQAAgEZAygAAAI2AlAEAABoBKQMAADQCUgYAAGgEpAwAANAISBkAAKARkDIAAEAjIGUAAIBGOBkpf/JPf9K98eqfi/sOmdnz9fjN7o1b74pxtlaGOj23bnZfFvatwbbl01o+1uTLN+S6NwfHWs5/8oMnul//7LHuZWHf0rTWJyzDt7rrqk+89ZPu0mek/fOylZR1w9GJ9JAujOvgS2Eqic/58p8+LIbLYwr2+uPSPkVuv9m++fn2xVS+FDVhLAUp15ahf50UVefdgupO9jN/3r28YDpGNihnj5OS8sS1QMqbs6aUq+v83tpgz+zncv1a61IOGs7D3aVXVaLHCm8aQJQJVVg3vjX+XYUtkKihqvg3LXSd7uz5c5XLbG9XylP5UlQ2nAo2LkPbQMrp2472pFxzLVKQ8kjat8wHUl6Gqjq/xza413MtwExS7gkKwkp6ho5Yn2uuhqRHgbm7ncOVcjlfivmkvFUZ2tH33I2kRSlPX4sUpDzSnJQPoINfW8pVdX6f5XgA16zEfFIO5GWlvHPj2lCItvPP3wyYdMnx5cQlpMGdxyM5zlaMIUxcFjoO1UG4WQZLnPaacxXzpcjlzSM+zwJlGMQ5VT6Kibynnaw9T49Kn9kfHj8Sdc7xuaL0DKOBIJzUEU1di54475ooPTXlMxGmPs0F9LF92oY4VDpdOUdxFdJTey3kNEdlowj299SUjyaKK46nJ66/Lu3FazrByz9+svv1j893d1x+rBdo/3/NE93ffzEKG+zveeuh7k/8/YovPtT9wg+jiaQch5HimY18nd+oDdbU+cL12uhcE8hxVdTDnmI/W8FCI+UeL7FbJzKOcwp3zqxQXGFLF6gslKHC1aRJpyPssJIy88onG/cG+c/nS5HLm4S9SZi1DG2cLv815VOR9zAdVhRSQ56Iy8Tjp8em18ujTp+KP9mWlkPxWtjr7qclCV9df8phNklzFldP+3g/qcv4J93Lr6rzRvWkJs2KiWsxpHk4Lqo7PTXXq6qcN2hffjmI+yfQUo7k+PdvhX+bEW8oah3GF66V9vuXxzDJSFmHCePR519QzMU6r5gq65r6U3u9NrmulYj5W+A8ipmknOsQ7XZHoaMXWSTTOXGUtw/iFCpPiOkgkrtGnRfvOKHT2PxcPrn0T+2LiTpbkXJZpdv9jnWT8innfWgotp5k01ysR1GZO6JjRJll450ohyidYYOvKZ+6MtwszRmCemryZdLv56Xymg7b8udP+5a4fGquV00592zUvhQ2/3GZViBJMZbp+71sf/GD+4b9GjvidRLWklYjbi9MHI8KI8cjjMxnI1fnLcXrXll/aq/XRB3bBlHKG9efOraXsq6cI0mBRphM9WETcRdYoHAVOv1JB56rVHEnYBu8ykshvNsfM4SvuqBT5wqR86WYaDABcocWs1kZ+nFWlk9F3oc6pSjVq1I9ihv+gDm/u+6SLNK6MbJJ+UjSGfIVYY6tK8O6NIflbMh1hP6x21zTnok2LaU5KJ+q62XSUy7n8RgxnVnGY+rCGyalXJCmL1klbn+UrJDkPkxbR8THzolc5y3F615bfyqv10Qd24a07ii2qT/TzPhMuQLdwDdJfNyBzITYsOWGXEqDLod+n2LcX5nmDe+y5HNFZDusXN4kbEXLNS7H1mVYWT4eubwPDcU2wq06hGyZmXJw55PrfKFcNygfScrl8qkrw43TLLGBlKfSoyldix4pzctJeaSqfdl4c3GU2LeUk5HyPsheG7cvd903qD+W4vWaqGPbUKo7irr6U0fjUnaZ3bwRlAk7XEOmYpQqmiUsj0qpbShlR7nspXwp5E5KpjL9hTKUO0OX19r4U+K8Bw3F1i2xQWzTIUTHiOVerBv58onPFdbxmvKpK8PN0yxQJeUNrmnxWshpDjvEmutVU84yYpkpbPzivgrmmr6Wwui4vXikKe79INV5S/G6b1B/IvJ1PF/HtmFKyo5s/dmAhaTcN4pkvy34TROcaQyqkJJCtx1zzcWVCjndVpNmoUKVBOHYSsrTlVeuPKaTqquk9Q0kPVd6HhMmKoua8klI0xWfXzyXxqQrlyfTWfvXIr3uaZ0vx6mQroU517jN/B1uq68/5TDbpDkhqKfmeHPO6HpUX9OKayG09bTMKq7XVDknyHU/X6/qqZGykavwopd3XCxg83e4zb0MNtdo2eU/vi4SUp03TNS9mfoEQ109nydfPrn0bMZyI2UnU5+tE2sz68UlXjx7YevOYy5cLKrhQjmiuJL9QhiNS4uPX2ZBZydTfa4AKV+2kiaM5xfPFYVJic8lnSdTkSfKpybvJkwY/9D5xuWU1MfwuOR80fFjpz5SK6DwWoR1WcehyyIqp6n6UxFmuzRHBPXU5MfEIXRANWlWFK6F1LdI13nqetWUc00dm2vUVSPlcZsTbY8w4tWitvu1eLWEw3iSn1YpovPXMtQj6VomSHXeMtEGp+pP1fVyTJ2rZ5N8VdVBRS49G7CVlI8FqQM4BvaZr2Mtw5ht87lm+ZzKtYG2OMZ6pwW8pzydtJTN3VR5tHqQ7DNfx1qGEVt3NCuWD1KGVTj4PqEf7Qftxp8h8sMtw2lLGaCSQxQcUgbYkmgqfV9CViBlAACARkDKAAAAjYCUAQAAGgEpAwAANAJSBgAAaITdpaxffxfeUMttBwAAAJEdpVzx+y0r512/iHNwnGq+AQBga3aTcvTZuhz695IzfH7soEDKAACwIUh5KZAyAABsyMlIeUhD8KWW6FNwQ36iBTDitAdx9HhfTRI/Uj4QlVUhHgAAOD1OS8qRGM02L/2eJIfn5NGI10jXl7kTeFQOEyPl6ngAAOBk2EnK1bLVslv3A+WJgBWxOK2UQ5H6L7NlXmyTBFyU8gbxAADAybCVlN2oczN5GBGtNRLUaU6mhyM5Tt08aGlK+80oN5BsSbCbxAMAACfD7iPliuegZqp23WnZkpQHcSJlAABYkdN6phxLOZbj5DQ709cAALAcJyxlO53up2tSyjaeIIx9QSszCs/luz4eAAA4FU5LykqSHslItULKiuRnT7m82ZHvGDYsq+p4AADgJDjt6WsAAICG2E3KdiRYfjEp8/x0zyBlAABond2krNCjZTP9GojXn7rdapRsn8kWqAmjUC9OHZaU5827fA4AAGiN3aUMAAAAs4CUAQAAGgEpAwAANAJSBgAAaASkDAAA0Ai7S9l7yzr39vXaP4cCAAA4BHaUcsVvkK2cD+anOXOl99DyDQAAq7OblA/oi17VIGUAAFgJpByDlAEAYCWal/JwrPflsGTRiCEddqUlFy4+ZxBHj/eFr2RxiIAoj7vGY49PhR0+DqjKu8LeAAxh+JwoAMBBchhS1rIZz2O2eef1pDU8345GqkaWwlKJcfonRrjzxGOPEW8a4nyGcct5D0WtwyBmAICDYycp686/RraCOGpJJKSIhWelHArQH3VmXkiTxFmU6VzxFOTuled03s0xcnq2K28AAFiPraRsZJEXjowRWiKZCeRRXyTHKelnJSVIrSTTueLRRHkQ4p7OuytTmc2uDwAArM3uI+WKaVIzKtxMxo6SmAbpHKSUw7zpMopmHabzHokdAAAOmsN4phyLKZbj5PR4Rl6SOIsynSsey5APJfU0/dN5NzcD25YtAAC0xQFK2YgxiG9SyjaeIIwVWmYkmkvvXPEY7LEqXHL8JnlntAwAcAwchpSViDwSAVVIWWGm0b24cmmyo9wxbJjHueLRWKlKI+qqvCtsHAGC5AEAoG0Oc/r6mCiU4dHnHQAAAnaTsh0JlqdOM89hKzlqMdnyyz13RsoAAKfFblJWeFOngXj9qdstR8mKYxSTP/1dehEMKQMAnBa7SxkAAABmASkDACzEf/j4f+7+0yfuL/JbZ+4Tj4XTBCkDACzE7376oeFRVY5r//0l8Vg4Re7u/h2A2Iy/hdcvRAAAAABJRU5ErkJggg==;" parent="1" vertex="1">
                    <mxGeometry x="400" y="340" width="360" height="150.68" as="geometry"/>
                </mxCell>
                <mxCell id="14" style="edgeStyle=none;html=1;exitX=0.5;exitY=1;exitDx=0;exitDy=0;entryX=0.5;entryY=0;entryDx=0;entryDy=0;fontColor=#FFFF00;" parent="1" source="10" target="13" edge="1">
                    <mxGeometry relative="1" as="geometry"/>
                </mxCell>
                <mxCell id="10" value="函数最重要的是，通过new调用构造函数的时候" style="text;strokeColor=none;align=center;fillColor=none;html=1;verticalAlign=middle;whiteSpace=wrap;rounded=0;fontColor=#FFFF00;labelBackgroundColor=#FF0000;" parent="1" vertex="1">
                    <mxGeometry x="430" y="550" width="280" height="30" as="geometry"/>
                </mxCell>
                <mxCell id="17" style="edgeStyle=none;html=1;exitX=0.5;exitY=1;exitDx=0;exitDy=0;entryX=0.477;entryY=-1.333;entryDx=0;entryDy=0;entryPerimeter=0;fontColor=#FFFF00;" parent="1" edge="1">
                    <mxGeometry relative="1" as="geometry">
                        <mxPoint x="570" y="650" as="sourcePoint"/>
                        <mxPoint x="569.56" y="866.71" as="targetPoint"/>
                    </mxGeometry>
                </mxCell>
                <mxCell id="25" style="edgeStyle=none;html=1;exitX=1;exitY=0.5;exitDx=0;exitDy=0;entryX=0;entryY=0.5;entryDx=0;entryDy=0;fontColor=#FFFF00;" parent="1" source="13" target="19" edge="1">
                    <mxGeometry relative="1" as="geometry"/>
                </mxCell>
                <mxCell id="13" value="" style="shape=image;verticalLabelPosition=bottom;labelBackgroundColor=default;verticalAlign=top;aspect=fixed;imageAspect=0;image=data:image/png,iVBORw0KGgoAAAANSUhEUgAAAfsAAACWCAYAAADZliHiAAAAAXNSR0IArs4c6QAAAARnQU1BAACxjwv8YQUAAAAJcEhZcwAADsMAAA7DAcdvqGQAABtiSURBVHhe7d3PixzH3cdx/ws6++aTDkZ+HIQJdlgpCMJjSfEPFmWVQ8DxBhlZtuQchAmLsTACeRH4YCyQjE0OIhZGyI/JwYtZiEA+CHwLGHzxIZA/4Hl8y62e7qrq7vrxre7q2Z7ZmZr34YW93dU9PaPp+lRV93Q9cfTp46rPCyf/Wz39X78U1wEAgOU3GPYAAGC1EfYAABSOsAcAoHCEPQAAhRsf9m/fU7/75lHnyzvqmFRuqXygTunj/Va98Kq0fo28+ZT6+ccj6vGbwfKbTyr1/VNq1112UPU+f3xC++mms1wfg1n+891n/G0AAJMbF/av3lFnq9A89baw7jBkH88yhf1ptfPdX9TtyGV1cVsqP6Wj6qdkwD6jHn9fBfBUgW8D3Qv5UE4ZAMCBjQr7Y9e/Xa6e/LI1PrKYsN+9dUJYN082zPeOCusafY2BcXbvHslqONzfGzomAMBBjQr747eXbNiesM+mw/fHJ9V9YZ1HD70Lw/wjEfYAsDymC3t9LT8YJg/DWP9dl7mgXviyHla3bn/QbdMKynxzTx236/QIQ7s81JXrhu+lda7wtcIGhFl/9vqF4LVT++uTG/Yn1MU9f6h/51pcbuPWZa/M7XunozJNrz6vx54zAjCMsAeA5TEc9uENeYE2FLPDXtouDFcb0l7DoloWNgpG9OxNSEvhbF/L3bc9pjrczTKnMdCWE7bLkhP29rq+G9zXtnWYu9tt3qsDflttNmWa7fbOqY12WWXktfHcoO5D2APA8jiEnr0c7F2w2tfJ6TVPEPap5f57tWEfBPtslzVsIIecgDa9dTfEDR3uTbntc2q32i7q7etGQXCznx6azxjCbxx4KH/ESMJElw0AAGlLGPZysIomCHv9nqTX0u+nKT992Pf17HWoS8PxOshtI8D9f4/Zv9sIyL5e35g5gO0lgNHbmhsDRx0jACAbYb8GYT9bz/4gwZt/3X90QwQAMNryDuPnhOgEYX9Yw/h9YT/5MD7X7AFgrU0X9olg926+ywz7dlsvXKtyUQ/cbJszCpAKdfG1dMPFPc7Fhn0T5NINel24N3fru40Cs+94VGDMHfbcjQ8ApZku7CsmUKsyWh2sJoxHh72z3N+fu95yGhVRuWhdx3+98LWCEYpFh71mg7slP2HP3JHfSe3XDJdnXEuf6IY5wh4AlseosMcqy+mx8wQ9ACgRYb9OmgloxHC1jYEDXqtv6RGCofsEpmtcAADSCPt1owNfGKavw3mqoLfMpYOqARGGftPoqNGrB4C5I+wBACgcYQ8AQOEIewAACkfYAwBQOMIeAIDCEfYAABSOsAcAoHCEPQAAhSPsAQAoHGEPAEDhCHsAAApH2AMAUDjCHgCAwhH2AAAUjrAHAKBwhD0AAIUj7AEAKBxhDwBA4Qh7AAAKR9gDAFA4wh4AgMIR9gAAFI6wBwCgcIQ9AACFI+wBACgcYQ8AQOEIewAACkfYAwBQOMIeAIDCEfYAABSOsAcAoHCEPQryjHr8/RPq57vP+MvffEr9/OOT6r67DADWyGqH/at31NlvHqlTbwvr5uTZ9/+t/vg//6v++PEX4vp1t3Hrsrr93V9i906L5ad0f+8Jpb5/Su2m1hH4ANYUYZ/r5YfqfBXy599/qF4m7JNM2G+rTWHdPO3ePTIQ5qbXr/aOCusAoGyEfZYvqoD/tzr1cvP/hH3KoYS9HqZ/Qv10U1jnyi0HAIUZFfbHbz9Sv6vC1fhWvfBqWOYDdapdL5TR4Vwvu6Be+NIpd/sDZx/GsevfOvupdfuK17nuqePBvnrpHnsd5B+qU3erEK+DvDfMlyXsN9TXr19VP5zZUDtnLql/vXXVek3dCcs+t6l+aNdXXt9UO966S+rr55zyrRfVo6r8o5PSOll22F/b7ob4a3vn1MYsZSq6V58Yvg/1DfXXXrrxldrf31cPbmyJ6wFgFWWGfRPObpBWy27fUceav20v++z1C3Z9F8ptz9uW8Za9fc//u10mNSYCU/Ts7fB8HfDn3//QW9b+7VmusNfhvfWiXWbCufu7cvK1qowf5ne2nMC3DQEx0HsbArKcsDdlLquL282yE+riXh3o3XY5ZYyRw/M3n+wd7ifsAZQoK+xNaPeHr+71f+mEv2YbCU3PXQxnMxoQNxIyeugThn0Y7M9/XAX63YfqWWeZcbCw93vhATekB9mwD7bxgtzp/btl/BD3e+96+2afuqEgjBT0MCHt9MatnWtNmdNqp/p799YJb7uj2+fUblsup0zjqPppzNA8Q/kA1lBW2MtB7jKh7gZ2Qwd3s21m2PuXA3oaGROG/ctv+svNXff/VM87y4wl69n3hr3t6SeYgHcbBE15G/B12LtD/hkGe/Y6sN0ee8P03HXA55Rplo0Nb8IewBpa0rBvNJcPjCjU5x32c+jZTyc/7KOefaDtzdc9/uq/9d91Q0CPQix72M/Usz+iHgf/3gBQshHD+P3D6lMO48eC/TTmGPZ6GF8M9NUbxh/arz6mqkz9X93br3v0NvTHHVNG2E8+jD/tNXsAKFHmDXp2WN0L8yqA3Rv07I12bmhH1/pnDvtUGXtcwt382YSwN0P4zU/tQqvUs6/o6+4DvXs9XH9J/dBen69HBKq/2+H9oHyP4bA/rjbv1dfxhZvvnLvtc8o0hn9j38m9G3//s6viegBYRZlhX/OH1MVr6TbMuzLBaEBm2Ps/8TOSjYGh1xxiw779yZ0WX6vXPf2oXC3VKJi3zLCv2cD3uGXsHfnuvvR+qmXiXfo9csK+ZsqZm/c04Ql7OWU0ex0+ekxuKOd6/Tufm7Df/1xdkdYDwAoaEfaFSgzjY7VM9wS9LXXjAWEPoCyEPWFfCBvmicDPfja+7dnzO3sAJSHsCfuCmMCfada7zZvqgR6+31efviOsB4AVRtgDAFA4wh4AgMIR9gAAFI6wBwCgcIQ9AACFI+wBACgcYQ8AQOEIewAACkfYoyAHeKgOABRstcN+iilus32oTt31J8HhqXuxaPKaoUlsJtQ3o13243IBoECEfaZwfvv+aXDXV+6sd1ObbiIcACgPYT8zM6/9+fc/FNatr0MJ+5ypa2u55QCgMKPC3p9nXpjP3s5Nnyyjw7leFsyNf/sDZx/GsevfOvupdfuK17lmmc++7qEHw/ROL15mwn643LyY+ex/OLOhds5ccuaqf03dCcs289U3ornsL6mvn3PKt15Uj6ryY+a0zw77a9vdEH9t75zamKVMRffqE8P3ob6h/tpLN75i1jsAxckM+yac3SCtlt2+o441f9te9tnrF+z6LpTbnrct4y17+57/d7tMakwEpujZ21nv6oBve+l2WW+vPafMXJmw1+G99aJdZsK5+7ty8rWqjB/md7acwLcNATHQexsCspywN2Uuq4vbzbIT6uJeHejddjlljJHD8zef7B3uJ+wBlCgr7E1o94ev7vV/6YS/ZhsJTc9dDGczGhA3EjJ66BOGfRja+hr93YfqWWdZpxkF+Kd6Xlyf5vfCA25ID7JhH2zjBbnT+3fL+CHu99719s0+dUNBGCnoYULa6Y1bO9eaMqfVTvX37q0T3nZHt8+p3bZcTpnGUfXTmKF5hvIBrKGssJeD3GVC3Q3shg7uZtvMsPcvB/Q0MiYM+/DOenMDnhzmuiEgbLNYOWFve/oJJuDdBkFT3gZ8HfbukH+GwZ69Dmy3x94wPXcd8DllmmVjw5uwB7CGljTsG83lAyMK9XmHvdCzb4L+8G/Myw/7qGcfaHvzdY+/+m/9d90Q0KMQyx72M/Xsj6jH/GwSwBoZMYzfP6w+5TB+LNhPY45hH/7UrmZ6+wcL+sMYxh/arz6mqkz9X93br3v0NvTHHVNG2E8+jD/tNXsAKFHmDXp2WN0L8yqA3Rv07I12bmhH1/pnDvtUGXtcwt382YSwF39D/+Y/l6RH38gJ+4q+7j7Qu9fD9ZfUD+31+XpEoPq7Hd4PyvcYDvvjavNefR1fuPnOuds+p0xj+Df2ndy78fc/uyquB4BVlBn2NX9IXbyWbsO8KxOMBmSGvf8TPyPZGBh6zSE27Osg74TX6u3P7ESH9WCdzLCv2cD3uGXsHfnuvvR+qmXiXfo9csK+ZsqZm/c04Ql7OWU0ex0+ekxuKOd6/Tufm7Df/1xdkdYDwAoaEfaFSgzjY7VM9wS9LXXjAWEPoCyEPWFfCBvmicDPfja+7dnzO3sAJSHsCfuCmMCfada7zZvqgR6+31efviOsB4AVRtgDAFA4wh4AgMIR9gAAFI6wBwCgcIQ9AACFI+wBACgcYQ8AQOEIewAACld42IfPtJfnp5/Mte28Z7nPCzO6AViA+omUg3NRzNGvfv+eeuP3Z8R1jV/89s/qjT9tqV8I69bR2vTszUx2cw77lp2hbZFhnzPJy6CmcXRYk/scMj1zozDBE8axM0RG7j5Uz0rlSzXZ9ykxxfdhyp18ah6e21J/uPJn9ZvnhHWtM2rzyntq89fSumG6MVFYQ4Gwn4tFh/1R9dMBTzw9f3/1+ZySpvddF4T9NHTYr+l3yFVy2Nf0SOIR9XjBjxrP6rH/+oJ648oF9StpXQbCfoWVHPZDc7QP0Z/Nx190/0/Yy+uRh7A3Sg/7ykHrnvFyeuwn1W/+9J76w29PCuvyrH3Ym95fQzqZw2vkQRk96Uy97EN16q5TzgaNy4SOU0Z6vXC4sGeYcCjs/fd20IlxhsL+tNpxr+1/d1ld3B4qkyprevWp4Xv9vurP1/us0hXxsoT98du2ctMVZvX/WlhxfqBOVctPvX1cHbv+rVPunjru7KutLNv1ZptmvX4tZ53nyzvqmLsv73iE9RgR9gP1hRbUFZVZzs2V/D69ekedddcFzGuaY5YaAvo4mv3pfdXvNzh2qQERHlNfI2Pw8uFV9ameYGqiKaNzeuxZw/wS05B4I8FtPHSjC/42bhmpwaC3i47fNE6615rl2Idlhn1zwrlhWS372AlXO3vc+fc/tOu7wG5PTlvGW2ZDyDuBMyqLOJSkY+ykw95u5zY4DjwTXk/Yb59Tu1Vo79460S7buHVZB/nOtaacDXpne1NGaBQMDKV1jZjuvTdD9unPaUnCXlc2XUVrlrkVr63oam0lGfaChMrQVmZnr1/olrXL0z0xEwDu+qbiDMNgzeWEfU590TQG3HPT1hfudjlW+/sUHoPP7Cfcxhxn2whxGg7tcdpl7nHH++p/7eRMk60pw96G4sCNeVP0yof2YULbhHM7yqAbIl1Q54W9aSx4oxDBfqaSFfY5AaADJOpZB0Eqhqg5oeOTXg4jI95G6wnp5D515REvb3vEwfI86bDfvFct3zunNrzlQXnbIOjCP7Gssnv3SO8wmhjsg5/TsoR9UIHZyqnrRQkVb0VvaytruSL0y7TLeytn81pRhR4d0yJtqK9fv6r+9Zbs0UlTbufMJXG9tvWi2dfJ1+T1tdc31Y73ugNsIIfc8zWnvkids/K2/Vb7+zQQuDmhLZSp+ccdNBAa+n3E77mxsKH8BdyY18gL++BY9PF1r50T9vrv6HUOfhlCkhX2wyeXOUml1rY+YZttM8PeH94TgkfvRwqkgeMQKg6zvHmtwMgKpZMKe7Pc7dU3dM+9bQSkevbbatP+3Rg60eR/u0RjqbJUYR9WnlEFmagwHXo/UiUpVWB9lbOuLKV1piLuO4a1M9izz6sv9HdXanAnGuh9Vvv7NNS7Dt+fsA+xERE0CmwZMwISSjVaFhf2OT32uOc8m7yw73+dnLDXZewIQWRgBGOsJQ37hm3p2/Btt5s87MdVHMMOGvZ2+zrwW9J1/cyefSLsl75nn6icw57Y8lXOa27Fwn75v0/DYe+9lt53cCx9Yd98LokyQ3TY7x0V101nMTfmNRYa9gMNmKmMGMbvP7nkULFhPXIYPxbsJ7WNuH8j+R4GK6ZZpMI+cxhfP5wn7sWLcq7Zh/8uycbSkod9VEEOV84M4x/WMH7/dyinvkids/K2/Vb7+5QR9k4joT7G3O+p33gZfv+xoWv2E5nrjXmxRYV9zn6mknmDnglX/wSrTkz3Bj19gvsBHAXHzGEfl9EnvFeh2IoiUQmkGyx2u8yewhufPFT3/1755F1xvZEO++Ype/ENek7PXZeRe/Kx/t/YxxWj/beUekyV4bB/V31Uv//KR29J66cRV56mIvIrvIzKyVZy3na6EhYC2pZN7U8fk1d520o4rOTXXU4DekR94X1X7XZSg77v3Fz175MpGzcyXKYhEu7TEsLelPfLNvuI3ktK9t34X6kbm9L6HHk9dh2uEw19mxBONxxyQloO9uoYve3s3fwL6N1nhn2tCcWGcDI3J2crCNDMsDdB7pMaA6ZycMqFARYdT8ffX/jejLhCOa/e+1u6QjGhXQ+5h4LgtjfbdevjXrweAfDKGNIlAD2MlnhMbtZn2fM5RZ/pKx+pvy4q7HXF1YkrzdyeiK3YW6neVsVW3K2g4u0qVMsLC2g5YV8bqi802zhtpfbbf26u/vfJNgScsnEg2+OS9tE0Ujxy4yE6plriuIav12+pGw/qsN9XD25sCeszLPDGPJduPOhwNtzGRl6PPPhJXd0QEUcobOB7phmhcI0IeyxK6ma8aASgle7dzzLkuQzinhgwu/X4PpmwF3vlQs/+wHKfoPfO5wcK+5zr2nnhu94I+yVkevWp3n7iWr4+8eLAJ+yBdfg+DVzXnzrss5+N3/TsZ/2d/WJvzCsZYb+UpLvxK9GNfQEd+P5w/sLCXhwmDD1Ur4jLXWZIdBUrZ33M4nty3P+HvNxFI2dyxYa9e971XVKaOOzr4fuhoL/ymRm+339wU70krMdiEfYAABSOsAcAoHCEPQAAhSPsAQAoHGEPAEDhCHsAAApH2AMAULjCwz581Gbe8+9nZp9735KejT9Pwu/sAWBqOb+zn6ec5+Drp+otaEa5VbA2Pfv0RDjz0DMRzrwMTkgxwE4w0lrBp+4dWO8sZcgWfpfW9Ts12fdp4Ol4hyH7CXpzsIBn5ec8onfVEPZzseiw75/5bpCekMSdYKR/ZrxiEfbTyJ0Ip3Qlh30t99n4E8vqsedMiduDsF9hJYf98MxT4y3281oShP00CHuj9LCvzKPu6beYZ+Wvfdj706VKJ/PAdJRtDzKYUlboQUbT10qvN2LoeSi8wqlgpfmy8w2F/Wm1417bF2eyC8ukyppefWr4Xr+v+vP1Pqvhith8XsPl5kU/y7yu3HSFWf2/Flac3Sxf/rSc4dSd/dOD9j7TPnyeunc8wnqMCPuc6Wvj6adnOTdX8vs0MN+Eec30tLbefAB6X/X7DY5dakCEx9TXyMiez37WiXACOT32rGF+iTTVbCea4lY3Bvxt3DJSg0GenS+YCncO09vWMsO+OeHcsKyWfeyEq52b2p0rvQns9uR05q9ul9kQ8k7gjMoiDiPpGDvpsLfbuQ0Oe5yzB35P2Nu57N156Zt58HeuNeVs0DvbJ6e3HRhK6xox3Xs3y9INn1pOmXnqKsyuojXL3IrXVnS1tpIMe0FCZWgrs2jecr083RMzAeCubypOeV7wtZUT9jn1hXQ5ydYX7nY5Vvv7FB6Dz+wn3MYcZ9sIcRoO7XHaZe5xx/vqf+2jTz+jHn/fdwlxyrC3oThwY94UvfKhfZjQNuHcjjLohkgX1HlhbxoL3ihEsJ+pZIV9Ti9Ph0PUsw6CVAxRc0LHJ31f0MTbaD0hndynrjzi5W2POFieJx32epraaPa6oLxtEHThn1hW2b17pHcYTQztocbMjBXqlOKKuBLN3CVUvBW9ra2s5YrQL9Mu762czWtFFXp0TIu0ob5+/ar611uyRydNuZ0zl8T12taLZl8nX5PX117fVDve6w6w35+Q+33KqS9S56y8bb/V/j4NBG5OaAtlav5xBw2Ehn4f8XtuLGwofwE35jXywj44Fn183WvnhL3+O3qd+UzZmxX2wyeXOUmlcNAnbLNtZtj7w3tCI0PvR2p8DByHUHGY5c1rBUZWKJ1U2Jvlbq++oXvubSMg1bOP57IfOtHkf7tEY6lm/41mf+/TECvPqIJMVJgOvR+pkpQqsL7KWVeW0jpTEfcdw9oZ7Nnn1Rf6uys1uBMN9D6r/X0a6l2H70/Yh9iICBoFtowZAQmlGi2LC/ucHnvcc55NXtj3v05O2OsydoQgMjCCMdaShn3DtvTr8HG3mzzsx1Ucww4a9nb7OvBb0nX9zJ59Iuyjnn0T9JN/HuP1Vc5hT2z5Kuc1t2Jhv/zfp+Gw915L7zs4lr6wbz6XRJkhOuz3jorrprOYG/MaCw37gQbMVEYM4/efXHKo2LAeOYwfC/aT2kbcv5F8D4MV0yxSYZ85jK8fzhP34kU51+zDfxexsWQ+02UI+ppYOUcV5HDlzDD+YQ3j959TOfVF6pyVt+232t+njLB3Ggn1MeZ+T/3Gy/D7jw1ds5/IXG/Miy0q7HP2M5XMG/RsEHgnWHViujfo6RPcD2Bzsjon/cxhH5fRJ7xXodiKIlEJpBssdrvMkHvjk4fq/t8rn7wrrjfSYd88ZS++Qc/puesyck8+1v8b+7hitP+WXo9pzGfwrvqofv+Vj96S1k8jrjxNReRXeBmVk63kvO10JSwEtC2b2p8+Jq/ytpVwWMmvu5wG9Ij6wvuu2u2kBn3fubnq3ydTNm5kuExDJNynJYS9Ke+XbfYRvZeU7Lvxv1I3NqX1OfJ67DpcJxr6NiGcbjjkhLQc7NUxetvZu/kX0LvPDPtaEwgN4WRuTs5WEB6ZYW+C3Cc1Bkzl4JTzAqwSHU/H31/43oy4Qjmv3vtbukIxoV0PuYeC4LY323Xr4168HgHwyhjSJQA9jJZ4TG7OZxl9jq7wM33lI/XXRYW9rrg6caWZ2xOxFXsr1duq2Iq7FVS8XYVqeWEBLSfsa0P1hWYbp63UfvvPzdX/PtmGgFM2DmR7XNI+mkaKR248RMdUSxzX8PX6LXXjQR32++rBjS1hfYYF3pjn0o0HHc6G29jI65EHP6mrGyLiCIUNfM80IxSuEWGPRUndjBeNALTSvftZhjyXQdwTA2a3Ht8nE/Zir1zo2R9Y7hP03vn8QGGfc107L3zXG2G/hEyvPtXbT1zL1ydeHPiEPbAO36eB6/pTh332s/Gbnv2sv7Nf7I15JSPsl5J0N34lurEvoAPfH85fWNiLw4Shh+oVcbnLDImuYuWsj1l8T477/5CXu2jkTK7YsHfPu75LShOHfT18PxT0Vz4zw/f7D26ql4T1WCzCHgCAwhH2AAAUjrAHAKBwhD0AAIUbDPv//Of/tF9unAYAACuIsAcAoHCEPQAAhSPsAQAoHGEPAEDhCHsAAApH2AMAUDjCHgCAwhH2AAAUjrAHAKBwhD0AAIUj7AEAKNpp9f+50dULddXfXwAAAABJRU5ErkJggg==;" parent="1" vertex="1">
                    <mxGeometry x="384.1" y="650" width="371.8" height="110" as="geometry"/>
                </mxCell>
                <mxCell id="15" value="总结：相等是因为new操作符&lt;br&gt;&lt;div&gt;1.在内存中创建一个新的对象(空对象)&lt;/div&gt;&lt;div&gt;2.这个对象内部的__proto__属性会被赋值为该构造函数的prototype属性;(后面详细讲);&lt;/div&gt;&lt;div&gt;3.构造函数内部的this，会指向创建出来的新对象;&lt;/div&gt;&lt;div&gt;4.执行函数的内部代码(函数体代码);&lt;/div&gt;&lt;div&gt;5.如果构造函数没有返回非空对象，则返回创建出来的新对象;&lt;/div&gt;" style="text;strokeColor=none;align=left;fillColor=none;html=1;verticalAlign=middle;whiteSpace=wrap;rounded=0;fontColor=#FFFF00;labelBackgroundColor=#FF0000;" parent="1" vertex="1">
                    <mxGeometry x="436" y="1150" width="280" height="130" as="geometry"/>
                </mxCell>
                <mxCell id="19" value="&lt;div&gt;Foo的prototype和p1、p2的__proto__ 指向相同的一块内存地址。&lt;/div&gt;&lt;div&gt;prototype: 0x002&lt;/div&gt;&lt;div&gt;__proto__: 0x002&lt;/div&gt;&lt;div&gt;&lt;br&gt;&lt;/div&gt;" style="text;strokeColor=none;align=left;fillColor=none;html=1;verticalAlign=middle;whiteSpace=wrap;rounded=0;fontColor=#FFFF00;labelBackgroundColor=#FF0000;" parent="1" vertex="1">
                    <mxGeometry x="840" y="670" width="280" height="70" as="geometry"/>
                </mxCell>
                <mxCell id="27" style="edgeStyle=none;html=1;exitX=1;exitY=0.5;exitDx=0;exitDy=0;entryX=0;entryY=0.5;entryDx=0;entryDy=0;fontColor=#FFFF00;" parent="1" target="26" edge="1">
                    <mxGeometry relative="1" as="geometry">
                        <mxPoint x="721.5" y="989" as="sourcePoint"/>
                    </mxGeometry>
                </mxCell>
                <mxCell id="26" value="&lt;div&gt;添加属性&lt;/div&gt;&lt;div&gt;1、函数只能通过prototype.新增属性&lt;/div&gt;&lt;div&gt;2、对象可以通过__proto__新增属性&lt;/div&gt;&lt;div&gt;3、访问属性会先从函数内部查找，查找不到会沿着原型链查找Foo的原型对象查找，如果通过p1访问属性也是一样，它们本质是一块内存地址。&lt;/div&gt;" style="text;strokeColor=none;align=left;fillColor=none;html=1;verticalAlign=middle;whiteSpace=wrap;rounded=0;fontColor=#FFFF00;labelBackgroundColor=#FF0000;" parent="1" vertex="1">
                    <mxGeometry x="827" y="954" width="280" height="70" as="geometry"/>
                </mxCell>
                <mxCell id="28" value="" style="shape=image;verticalLabelPosition=bottom;labelBackgroundColor=default;verticalAlign=top;aspect=fixed;imageAspect=0;image=data:image/png,iVBORw0KGgoAAAANSUhEUgAAAWYAAAExCAYAAABPrQhZAAAgAElEQVR4nO3dfVBUZ573//fcNVFpujU0IhqkVUCBwUEwJmgyUVxFJePk/s0IlYxmNuKsD9lbqxIdNTE/9omKeWBjUhV/d6Ju1NSOGafATd25nWhEV2MeENcosHGRCCiNHQUE1G5AzdTO748+3X36kW5o4IjfV5VV6dNXn3N1Gz999fdc51w/Spk64y8EED16NDdv3ODPf/5zoGZCCCHC5H8MdgeEEEK4k2AWQgiNkWAWQgiN+XFPDdquXx+IfgghhFDIiFkIITRGglkIITRGglkIITSmxxqzl7kbSM+Ncz221nChaBd3w9ip8HuKuDeziaYby65XaLs42P0ZRLPbqVjXwX+9m0jBSdX2565SM2c4b64wsidcx3ruKjWLLQDUH5zB4g/DtWMhhrbQgnnySpJy42g7tB7L8X7qUSgmryRpZSrdWulPUMaw5L1pxHtt76Rq79ccr+jPY9s4uK4BzkxzD2WAD0dzak4Vm3YD4Qjn2e1ULLZIIAvRCyEF87CHJ6Kz1mC+Z0LQ4RMsmz7BMtjdULlZ/TV73uscwCP+wJ7dF0i8nELqGw/4eP4BClakcLDkAms2G9jjs03wCmZ1MNKawPsSykKELKQa87DREf3VD9HPCjabmWmIo3SjPkArPYsPxjFyhpk9swesa0IID6HXmP2Zu4H0XKN7Ddez1DB5JUkrJ9Kx6wA88yxxBqWd+QTV2z/x2OF0ogtVbbDQsOktbMCwZ14lZbrrS0KXu43oXO92rtqyr+cCHQuPco39+aiLv8fMEtWx/e0vHCKZW/wY01Q52nSsjAOl7q3GPP8YS9MjXRuuVPHOqy0e+/qB2ckd3DpjorCnwyoljZm/sMHJQCEuhOgvPQez58k+Ukl5c5vzUej15gjiVj5L26H1VB937D+buLmfqPajBKq1hgubHCcWnyJu7VPYtn/C3f2vUL2fIGrMrhKGPcx9tVGOZT5BddEnqve8jYjY31O3/6yzpW76s6SYT1C96RPn6xLWPuXjS6WvlDr0lSre2aiEbN40XpiXQ0GMqwSS9koOOeNbKHv+a86rXvdCcR0fbbyEM55nW/mJAVqvBVOeeICTtVHMTL5LAYTvRKAQImg9B/Pxt+wBCujXbiMhqu+zMNzC/PhF2nLjiIidDpxVjpNNNBYa3I7zCZbtfTioH8OeybIfSx2ux9+iIW0bCZMfZhhnXX1wG9l/wk1zNtFRsQyDkD+PUemP8cJ7qg02V5iOeT6JeFooU498S6soS84hJ2EMY7hES9YkHh0PTceqlFAGaOHAsRZemDeOtKxLtDhOJE66w0jiOBJkvXfPNR2bZnQwe7aRPZ4nCYOijNBrTRLsQvRC+EoZYTOd4VGA+WI/lQjcDRsd4fNYtvMWyB3Zq9ANRqCTfzHGSLhSpwpcu/O1LeTMG0kM0BI/klG0cNqjtEHpVZrmTcMYDyjBXDC2C9CF9w349AN7dlcx0xDFqXdnkNWrUBdCyAUm94E913oTyjquhBysD1CwYgap+SZYfoaa4oH4ahVi6NFgMJ/lTgeglAj6293r3WCajOdpLn1aHFhvDcqFM63tnTB+HGke29OSx4DtFq0ATbe4yRhS8jwa5Y0jnk7am1TbLg3nFhYynwvu+AVju8A6nIZevwN7nZpoe51aCBGa8AXzlVt0EcGI8cpj5cRcb8Zqts9q6DKkkrL2KdVW+8k/Nxeb6Qai0zy2h+DuN5fpIo4E9b7nbiDBBG1fDs4VjS1nr3KTMeS8Msa1MW8aOeOhqUI5qVfRwmUbxM+bpgrwMSyZNwau1LlfqHLSwH9ZIXFqMCNYe32YtmFSHxZikISvxnxxF+azr5LinLpmoWHTCUa9md2rfdVtss96SHe+3j41zd0nWHbFErHSu50NfHw5xJGgzCjpOqvMuPB5rG4su9YP3qXbFZfYU9Fpn2HhPEHYSdXeMlXgdnJ8Yxktr+SQ814OOcrWm9Vf845X7VqZaTGjmT2z9d5X/ak9d91eI94rU+WEGCw/6mnNPzFUKCfm2lJI9XuRiY2DJReIOTONrL5e+be5nk3JUeG994YQ9wkN1phF/3iAgr0J3Jp4wc9JOeWSbWsC7/cxlEE54WhoYEmQdW0hhIsE8/3kpJGsdxO4NbHZ+5Lr564zk4TwjXA/HMebZ6JIXHyGmpIzHJSAFiJoUsoYQFOmJMFf/sJ3F+vdtk+cYOJyoxmAsWNjuXatmcTESdTXXxqMbgohBpkGLzAZmqKNUczKeoSRBgN6vZ6z56p4/LEs/p+nfs61ay289Y79ssbs2T/j4enT+OLLcglmIe5TUsoYIMNHDGdqWiom03h+/GP79+H/+JH94799546z3X//938PSv+EENohpYwBlP7TNP4CtLa0cq25hcSEibS33yA2dgwXar8D7GWNmzdvMW5cLP9VUzu4HRZCDIoegzl69Ghu3rjBn//854HqkxBC3NeklCGEEBojJ/9EyI5tXxh023lrP+vHnggxNEkwi17xDNxj2xf63CaECJ0Gg1nH649mkdH5LYvOt/bcfPRUDk+Nga4Gdp1u5ED/d3BI+t1LC8kdD+Z//4wCMjj2V7FwpZJ5rzeH/Vj5q3/Gmp9GYvvPL/mf52L5P389Gb3tIu+/1EBJ2I8mxL1nUIL5xbS5LIyUINWSxo5OGA9tVwBuYSPW61aoar5Gw8GOkEtabawhkvbWTjjdSftfE/BYQtxvNDhiDtH1b1l0YrA7MTTZOvzfJjTspYwbnTJaFkIhszKEt9OdtA/YwWy0yUInQrgZwHnMMezMnorJz7O2SxXkNdrXpnv90SySmiv4Az9l5STlbsqeNWRHbdmh1V9N2sdx/bYNLCH/7yjINKi2WKne/U+U1Kk2JS1l84pM109z6zn2vPaRshpIEvkvrybdAE1HNrLzhMdr3Npq10DOypiybAvrZhi4deZfeGVffc8vEGIIGMBSRiurTtiXxg6mxqyflMXK1m9ZdKIVR7iuTOvigCNQnSUM5WShz73oeP3RqZh6GcRustdSkAnVuze6B7FHm6IFRrc2c9YUU/AySuDWUfLaDnh5NekL1jLnxHY+J4n8/HsnlMF32PoqZQgheke7NWa3MG2lphVMkTqWQAgnDCMx6sDW7Hs16lAkxBiBdlr8hTJJ5M+agO3cDrfg/vzoOWauSOLhJGioA6ij5LXDRG1dxPw182hqe5x0QyNHt4QayoF+gXRRebqCl7pC2qEmfbdvK+v2DXYvhBhY2g3msGjls0tdrJyUxeFJ9LqEAdBQ8hVNmYuYv7WY+b5KGEwgygD6zNUUZXq/Pmo84Gx/jJ27Y9m8YhEFJmg68k98HnKPXL9ABlKgMoa/52QkLURohngww4HGCg40otSkp3I4m17OeT7Gzi3HcNaJVxSTjketGLCd28EbfmsdKuONzjp0VEwSqtTWtFDLGHKRiRChG/LB7OSoSY+eyuGpY3lE18iBXv3Ur6PktY2UOAI6ZR6cOAY00mGF+OgJ9BiySUvZvMBe9nijdRFFC5aSf85zBN4TbZQypLYsRPgNSjCbbV0Q05dw7L0lkZFAJ81ex53Hqq2LiMd7FOybvXRhq2tUHtdRUt5I+oJFbM5vDDBqVp3sK6kDtnM0pZj5K9bSsmV7CCWNwSllqA1EKDtmZdB4hHXvDO77FWKgDEowH2iswKSfy8JH53JY2eaaLhecJROyXFPpAHRKmUI9WtRNoPTRBI+rylr57MS3vO25w6RYogIcb86aYuZ7DE+9yhYntlPIWooWeNSZnTMuHOFvpXq362Tf5+8fJnnrIuZvXQshhfPgcJQnApUv5q39LCzB/V1zB2CACSks5DgyNhf3A7kfswhaT4Hs2TY8o+lEnvvHv2HGSDMHX3xPglncF+6fGrPos1CCNmwljvkLmDESbp05IqEs7hsSzEKbkp/m1TUZjAQu/ellth0d7A4JMXCklCGEEBojNzESQgiNkWAWQgiNkWAWQgiN6fHkX9v16wPRDyGEEAoZMQshhMZIMAshhMZIMAshhMYEd4HJ7HYq1jUwErh1ZhpZbzzQv70SQoj7WHAj5pNGsvJnkPpuAsyo4uBz/dwrIYS4j4VWyjhp5MhlSJwqyxoLIUR/kRqzEEJojASzEEJojASzEEJoTMjBXPhtHExsZs/s/uiOEEKI0EfMH44jNT+WmHVnqCm5SlE/dEoIIe5nId8ov2BzPZtm6CjNn8Hi/uiREELc50IeMSeM7oDLBgr7ozdCCCHk5J8QQmiNBLMQQmiMBLMQQmhMiMFsI3Mi3Lo+vH96I4QQIvS7y3E5hVS5u5wQQvSbH6VMnfGXwe6EEEIIF6kxCyGExkgwCyGExkgwCyGExkgwCyGExkgwCyGExkgwCyGExkgwCyGExkgwCyGExkgwCyGExkgwCyGExkgwCyGExkgwCyGExkgwCyGExkgwCyGExkgwCyGExkgwCyGExkgwCyGExkgwCyGExkgwCyGExkgwCyGExkgwCyGExkgwCyGExkgwCyGExkgwCyGExkgwCyGExkgwCyGExkgwCyGExkgwCyGExkgwCyGExkgwCyGExkgwiyHkB/bsPkPF5h/cN89up6LkKkWD0ykhQvbjwe5An0xeSdLKVLoPrcdyfGAOGbHkYzIy9NB0iPKd2wbmoPeQMc8/xtL0SO8nrlTxzqst/XrsouIqZpLAm2884P7ESSNHfnGGvBIgfxyF/doLIfru3g7mgZRYTMbyDKispJ0MjIPdH01roez5Ks4P4BELNteTNzGO0nwje3w8X7hxGuN3V5FXbKBwo34AeyZE6KSUEZT1JC9PonVvDpUHrg52Z4Sn2e2smdFB/cFAo+EHKNibwK2JFzj43AD2TYheCGnErF+7jQST41E3ll2v0HZR3eIp4t7MJho/bSavJGnlRDp2HYBnniXOoGw3n6B6+yduxxr2zKukTI9QbXHty/M5Xe42onMdjyw0bHoLW7BvKrGYjOVJtO7dB3mrMTkGU26lim3UFmqtbKHj9UezSGqu4A/8lJWTdMr2Vj478S1vuzWdQOmjCTjHiV0N7DrdyAHnc2OpO13BS12ex4hhZ/ZU+PY4q66Huft503hh3hjXY1sdH228REuobYCCWR2MtCbw/oc9HPOkkSO/aCBvTjsFH/oeWU9ZtoV1MwzcOvMvvLKvPqS3JES4BBnM04kufJY4gzr0phO9diXDLu7iLjjrvZz9PdX7zwJKgK7cxgi3GnAEcSufpe3QeqqPA3M3kJ6bTdzcT1xt5m4gZTpYdq33CH67u/tfoXo/Yawx6zEtX0135Q7KD5QqYZ1LxhIzlQdK+7LjfqeflMXK1m9ZdKIVR5AuTIvh7fOt9gajp3J4aiSVp487g/fFtLmsfBRwhDM6jDrAM5h1Oox0UecV2H1jr0ND1d4yjlcARDK3+DGWvjfSWQIJpo3dD8xO7oC2WJ9B66nw2zjyFt8hIbxvSYiwCiqYhz2zhDhDN5Zd6pHoWdq2n3U+0i9MRWet4cJ+17a7+w9gmfwscWlPYTnuGhG3qYP0+EXacuOIiJ0OKIEeawTaueMjlPtLd+UOVwjXb8TcVEZyUhYRlNIdxuMsmZClGt16aP2WRY5ADZbba1qpaQVTpI4lwAF0vJ4Qg+2S+2j47UsNPP7oWB7RNXKgq4t21e5eTJvLQpR96gzo6aQ55GAeQ857OeSotjQdK8P+8Y7hifRIblZ/rQQuQCfHS+uYuDyJlDw4XxpMG8f2O8QYoP7zIOvGl4ZziwYynxsHPkbY3+3byrp9ob5fIcIruGAeHQHWGqx+g3I6w6Og6+I39tGz01msF5fA5FiGgcdz/t3dX0Hb9GwS3tyG75JJ+HW3uo+Mu9tsEG8kAsIazAcaKzjQGMYdBhSJUWcfVR+e5P2sfZTcSXsXJEXq4HokqTEAsbxIq70c0mXFHPJxA5z8y4pkJJ1cPtvpvr2ihct5SUyMiQyuDcpzs+8SA4T4dSaEpml0VsYnWDZ9gsVRQlm5jTg8RtoDwdYe1lAeLLZLFeQ1+hv2dtHcCRn6SHvpovVbPmMqqaNhSWQkYB3Irobu5DBa14X6oihaL/VHZ4QIj6CC+e71bjCNDDDqPcudjmfRTX6YYZxVtZmOYXIEdDQHPVr23G9b0VnaHAHtURLpTxHReui4GvZgDnspIyD7aNikj8S7gOxitnWBHpbEjKW9uYK3aeVwbAwmdNDZpdShw6Sik1vLI5k4PRIqVCPirDFM1MOt1s7g2jgNp9UKM6fagCDKGZPuMBIdV06G6w0JEX5BTZe7u7+CNuJIKFzJMOdW5eSf8sh23gKGVEzPTHe2cNamP+trmI5nhAG6rl9x33yxmW4gOu2pPu7fXcSSj0mOt2E+Fv6ZGAcaK1h04rjvP2ENZYAuXmpohZiplE7w82UAHOjshMgEfj2pk5rrwPVmzDEJPB4JNlun39f1TgsXrsCo9GnMzXJsi2RuXhKjbHV8URpsG4cHOFkbBROtQV3ZVzTVAtbhNPh5fsqyLbz79mu8+8Lc3rw5IcIiyFLGJ1g2XeF24bOkvOkIK3vt1zkSPv4W1VdWkrTyWdKnP6tsDHHqmsJ9Wp5d19nfU6c6sejs165YIlZmk/5mdp+OacwpY5bzbJWZ2sLfup0UM64qIzletSE+l1lFuYAN895fYtHqzKrr37Lo26kcnupRZ1ZPmeuyYtPFoG9tUKbZtVLTOpWFMWDuDPOUDOD8q2W0Pv8YS5fnMG25stHjysBg2jjsKY9izYwGFmweTaHnVX9qs9tZMBHqD/qeKgfwXXMHYIAJKSzkOJ/15g0K0Uc/Spk64y+D3YlBpVzR112WQ638vL1nFWyuZ9MMHaV+L7n+gT27q5jZlkJqwCv/EnnuH/+GGSPNHHzxPQlmMSjkyj8xJOx5w8Qpq4U8PzcrKiquYqYhjtKeLseev4AZI+HWmSMSymLQSDCLIeIBClZM45TVwgIfd5dbMDEuwGgaSH6aV99+jXd/buLSn16Wq/7EoJJShhBCaIyMmIUQQmMkmIUQQmMkmIUQQmMkmIUQQmMkmIUQQmMkmIUQQmMkmMUQIqtki6FBo7f9DNKArpKdR9xm1dJTQLtcxu1FVskWou/u7WAeQMZVqzF1HKL8DftNnCKWfExGzsfEWTR8A6NBI6tkC9EXUsoIUvvOHNXirNB94Ava0ROTkTeIvRKArJIthhxZJTuoVbL9i4g29dimf8gq2Q6ySrYYamSVbKBXq2QnjrOvB9gW+op44SSrZMsq2WLokVWyFaGtkp1HXF4GEZip9Rfcfsgq2bJKthA9kVWyFaGskm1cZS95tJe5r3ISDFklW1bJFqInGp2Vod1Vsh1LTHVX7rhnpsrJKtmeZJVsoW2ySrYfvlbJti/S6lH2CJGski2rZAvRE1kl2wefq2TP/oCMDH2fQhlklWxZJVuInskq2YrAq2SvJznH3qGIjNXMyliteqWskh0qWSVbiMBkaSlZJXtIkFWyxVAiV/6JIUFWyRZDiQSzGCJklWwxdEgpQwghNEZGzEIIoTESzEIIoTESzEIIoTESzEIIoTESzEIIoTESzEIIoTESzEIIoTESzEIIoTESzEIIoTESzEIIoTESzEIIoTESzEIIoTESzEIIoTESzEIIoTESzEIIoTESzEIIoTESzEIIoTESzEIIoTESzEIIoTESzEIIoTESzEIIoTESzEIIoTESzEIIoTESzEIIoTESzEIIoTESzEIIoTESzEIIoTESzEIMkGPbFw52F8Q94seD3QEhhhJf4Ttv7WcB2wd6XtyfJJiFCCPPkO3LKLk3r5WQHxokmIUIWix7tmdgoplDayvhpYXkjgfzv39Gwb+FvreeRsvhCtnfqftJBsf+KhauVDLv9eaw7F+EX3DBPPsDZuWYvLfbKql8YyPdYe6UZs3dQHquEcuuV2i72JcdTSe68FniOk5Qvf2TcPVO9DsbbTYwcYtGgI5OGB/Zqz0NZAmjsaMTxkPbFYBb2IhFPyBHFr0VwojZhnnvL7HU919nhLj3dCqB59JTCUILdWVbh21Qjy8Ck1KGEL1U0mpjjZ+x50CUKHrldCftfw3GweuBCMKPUqbO+EuPrWZ/wKwcYxAj5vUkF+Wq/tJ9jbLziNu8GpPq/+f2shxqT4bWcf3abSRwgurzk0nPjVO2dnuUGZ4i7s1sOLSe1thXSZkeoWy30LDpLVxjBqW0YHDtv+3QeizHVcfyUckBwFrDhaJd3HU8nrtB1R+P5yevJGllKjo/u7IfU+kLHvsFhj3zKinT25W+29tFXfw9ZpYEeG8++mTuRQkley1FC+DolhqSty4iXtlsO7eDN0rqVA2TyH95Nemqz1LdJiH/7yhIquNoXRLzMw1gPceeEshfkYmeRo5u2c7nzl0tZfOKTFf0Wc+x57WPaAit5wPOc0Qc7Ek8X4EdygnAvgd+Is/9498wY6SVM+9v5cPaPu5O9Fr4RsyJxWQsz4DKHZQfKAUgYsnHZCwvQ+8MXiW4mw5R/sY2++tmf8CsnDIyYnZQqbwuaKZs0k0WGjatx4YSoCs3cMcjmKJztxFtreHCpl3cVQItYe1TSjjZwzvafILqIiWs5m4gPXcbEbG/p27/WWzb11Pt3O6/xmwPTrDsWq88bz9Wypsb7GF5cRd1m1zbfdeYz9L25VzicidimIzqONMxTI6g6+xxt/emm/4sKZ7vrXClM9RdYb5eeZ29TfpaelHfnsD8rUaqd29kZ50SsplLyT/3Tziyec6apVCykUJHVmevpWjBala1bmTnCWWbIZP50Ycp3B3L5hVJ5Oe3c2rLYZK3LmJmfhKfl9Qpr7Mfy7XvYgpe5p4IZzVHYDoCO5RSxmCXPMTgCOECEz2m5WXMKnL9yViS53zWOC+DCFsltapw7T6wD7MNjCnrAYhY8gRGzNTu3Oba7cnfUtsEEUlZRBAq99Gh7bMauohj1FyPZuYTVDtHn2e50wFExTIMGPZMFtFYaFCH1PG3aDCDbvLDDAu6L08RMz2CrrMHVGF6lrb9fvoUyPGLtBFB3MKnXNvmziXO0E3HN2fd27qN2M/S9qUFDPZQd/Sp7ZD6i0ppY5rcixNAVqp3u0K44VwdNgxEjXe1+Px91/MAnKihCYiKSXLfz9Fjyn8boO6wa5QMQBL5syZgO/eR274+P3oOmyGJh5MI3uipHM6e6/vPoxNYEsKuQnFs+0LnH0+OcNaeej78+5dZ96KMlgdbmE7+5RERBd11FR4zNEppr1uGKWkcEUBEtB6avqDd49XtF8yQYyQCQpvhYb3l9lOfi810k0pE7HTAFWBd193PzjhHwIB+dASYL+J5KsR23gK5IxkG7sfwZ3IsEfgIzovf0GFNJcqjT4F9QuvZLKKn28PTBujT4sB8wnuk3tHs3r8rt+gijhHjAWKJAHS524jO9TxGN8Mng61Ps0t88Cw/KNw/33Za6gAlYDta64AJqucnEGUAfeZqijK9DxE1Hqjz3u7T9W9ZdKLnZuHUmzKGEGpD8uRfd3OwAahdd7+5TNf0VEbNBdvxpxhl6sayK9jSQze3Vd9F6np5v3KEsvkwhe87RsTzWLV1EVG92J13/XroCLWkIe4vYQrmUro7VivliFLVqDcPY5IeOq7at7XZICMNI7iNmo0pJrBV9n0+tGPUeqXnpg53r3eDamTqoE+LA2tNcKNlcI7Wox6eTttF1RfD5IeJMvTiy+LiLq6Zt5GQ9hQWJhNtrqA6mNHt+JHoaOfaRQDfvyD6zXgjercyRW810mGF+OgJBD809mP0VA5PjfH9XFcDu043cqBvR+g1CWfhT9hGzPZyRAbJS/KcJ/EilizDpLdhLrXXlLsr6+jOyCB51XrKd7pO/iXHQ3uZ94Uqc9YUM98EuI3A/HmKuJWp6MwnqAvh57ljZOo6GQjM3UCCCdoO7fJZJvAKXwA+4aY5m+jpS4j+5qzr5N8zqeisNZjdRqxnudPxrLPO629Gqb2ckk26CdoOvdXzm5m8kqTcOLrO/l7Zp70kkjL9WeKaz/Y4arafzDP0fvbDlXZsTFCVGuyj5Xj8v0ff6igpbyR9wSI25zf2bdQ8CKWMnqjD2F8496UE0vugd8zKgEt/epltR3vdBdFH4StlnPwt5ZZiMpavZlbGamWjmdrC37pGx/UbqSy0z8yYVeQoetow783xUbtOYkxPv38NqaS86TqR2HX291TvD31kWrfJPjMj/c1sZWO3amaFR9tDG0jPfZb06c/at6lOvtm2r+fCM6+SsnIbzslpfqam2bb/HkvhsySo+u9Vcjh+HMvP7FPnWv2Fqkndb+993N3/Chd4lRTPOrOPfsVHG+iTuo8oOZdEwYJiihbYNzUd2UH1rNUkhLqvE9spxD6jw63OfA9MmQs0+8LXNl9tB2cUXc+1DmAkTJo6F44ORP1L+BLcPGYN0q/dRkKU91zfocU1V7nO6wtHLuvWsmBDWXOSn+bVNRmMbDzCunckmAeL3I9Zw/Rr7aNlc6i/AsSg8xXAmg9lYGFuBiOxcuaQhPJgGpKzMu5tygUv4H1VoRD9ZMqyLaybYQDMHHzxPbT/FTK03bOlDCGEGKqklCGEEBojwSyEEBojwSyEEBojwSyEEBojwSyEEBojwSyEEBojwSyEEBojwSyEEBoT3iv/Zn/ArBzV4ni2Sirf8L5r3JCmrOvXPVD3QBZB+hkvZK8jXQ/mM0/zD9e8W8ycvJtVyZGuDbZz7DzxOqcGrpNCAOEcMScWk5FjxLw3h/LCHMoLD9GuzyBj1fqwHUKI3pg5eTe7F68Ay6WAbVYlt/DZwadZcfBpVhx8l2oyWZX9EjMHsK9CQDiDuX4jlYXqpae2Ya60QXyaLJUuBs/Y11kV9x07D67gHau/Rj9jZlwkXbUH+aNz25ecsnSC/kG3Ra+EGAhBlTKMq8pI5hDlF9JUpYpAawC6vZqIRKDHdv1g7gbSc6Fh00VGOVoRXjAAACAASURBVG4MhP2+za7baKpurdk8l/Rcx52Uu71Ww7avOK1aMlZ1T2PP59zX2XNfNNbtRkV+jjXgstdStEAdQY0c3bLdfZFUP+v5ebZ1LnCgaDqiWiF7oF17iRU+yha+6EZOAr50Pp4wMhJsN2j0bDj/ed79uQnk1piinwRfY47PZVa8mdrCHNpRwnr5B3Srb4TvISJaD5jpHoxQdooj4c042g6tp/o4Slh7r+ihm/4s6Vho2LTevvjp2m0kPLMSq3J3N/3abSSY1AGr3Fy/MNZ+B7j9r1C9n55rzMrzqG7qP0y5uf6IwapLJy1lc0oNhVu2OzaQ//Jq5r+8lCbHTemVUObcDgqVFUXsAawOZfvr0jsOU7jlmGvfK4pZxSCGc4++5J0Li9k9YzG7s+PYeeJ1mLybhePAfEZqzGLghXDyz301kvZjlXQvzyBmNrSf9NFcWTKqu/KQ3+AeKG6rejhWBUl7Cstx1Q3mPW6xefd6N5iUVbInr2SssryTa9T7CZZDk4nOnYhhMkGPdvUL7UtNXVDdY/nu/gNYJvvo00Cp+4g33FZvquObOivpmUbiwR7MjvX8zrkafn6hkfkmI2OSsC8llb2IdEMjR1875rbvU+ZM5qfMgxPBrgWo4/VHs8jQ+X7W/O1xVl0P4f0F49pLrDj4G/5h8WJWLf4jcInPDr6kKm2oHH2PdbLskuhHwQezrd19dkX9VbrJICImDyh1b5tYTEaOfYHV2gMezw049xWjnevtRcXaQ9exuaPZ7b7HzhEwKAucWrjmOZo9fpG23GxGjAeCCubpDI+CrovfeNxj+SzWi0tgskefBpBn+cFO9ZWqrOeXkJkEdcqIOWUCWM/xjZLVCTFGwMD8rcXM99yVNZYECHJJqC5eOj3APx3Gvs7uGZPoqn2XFRe/5OmH/8jCxX/kidp3WXvxy55fL0QY9Xm6XHerj1BenkEEZmq1PFXOI4jvZ/ZQtlK9+59wrHtqX5hV1aiumQ4gPlO9Bl8jR7d4rr/nozateb/hH5RQdoTwH795msbJu1mVvIIXrn7JO6GtJitEn/Q+mBPHEYGNVot643qSHaEcoPY8uByj1is9N3W4cosuUhk1F2zqgdzcyUTTjSXoXdlH67rJDzOMs6ovhukYJkcM0peFsuit+SsCLUadkP848T0shNrQ2g6oShu9NsClDH0co4HrVveR8SlrC6sYE8YDCRGcXgazEsBNh1SzMvKI25yLMahQdi1rP9Bn7PVrnyXOYKEhlHX0Ln5DhzWVuNwN3DyuOvmXGwfmE+715YvNdJNKtJ96se28BXJTMT0z3TkzZNgzS4gzdGPZ33/1ZfsI2OBjlek6WjqAKFepwdnW82/RoKo5+3LiMNWzVpO+Yi0tfRo1D3Apw/YldbZM0me8ztPOuvLPeCFlEtjOccpztOyYlXGrknf//o98N3A9FfeJoJaWMq4qIznefVt35Q4qVfXjiCUfk5HhPZEKgKZDlO/c5nqsmnbVr8E8d4Nq+pvCax294Febts/McD12n3anosy8cA34PKbL9fR8P3DWkH2Oel1flKC0KTdSsADvGRcG7327/x36bjd4U+bsJ/S8yufgcWWf68pA38+rOFaSxsqZ97fyYW3/9Fzcv4IP5qh78PLquRtIzzUO/hzhIWDOmmLmR3mHuveUufvDwhdeY/EECWbRP+QmRiIISh3a33ZrO00D3KNBlfw0sycAjeUSyqJfhPcmRn3l9RPflz/TyY+JDNhGmbscvp4NGK+rC33pttEdoSdwq3BeTVhHyWuHidq6iIKtme5PmQ9T+H6w85PvdXNZ//YCJgG3zvwL6/YN6pVTYggLqpQhhBBi4EgpQwghNEaCWQghNEaCWQghNEaCWQghNEaCWQghNEaCWQghNEaCWQghNEaCWQghNEaCWQghNEaCWQghNEaCWQghNEaCWQghNEaCWQghNEaCWQghNEaCWQghNEaCWQghNEaCWQghNEaCWQghNEaCWQghNEaCWQghNEaCWQghNEaCWQghNEaCWQghNEaCWQghNEaCWQghNEaCWQghNEaCWYghas683MHuguilHw92B4QQvecrfD8/dihg+0DPC22QYBbiHuYZsn0ZJffmtRLy/WOIB/N6kotyMTofm6kt/C3t/XW4vGm8MG+M6/GVKt55taW/jubtuavULIbS/HEUDtxRtW92OxXr7nBksD4XXSKPzHqI5vIvMHf5axRL2rzpUH2I8639042eRssSstoxxGvM26gtzKG8MIfKSlv/H660ineeL+Od57+magAO52Z2OxWLLdQf7Ev4rCe5qIxZRR8TlxjGvg22k0aOXLaQV3KVokE4/OjEKehavgsQyqCbNIXRnd9xaZBCWWjLEB8x3y9sHFzXAGemsfjD3u3BuKqM5Hgz5kobxozw9k4LCjdOY/zuKvKKDRRu1A/gkWOJHQPXq5sDtNEzOlZPV3MzAbLbr55KEBLK954hPmK+PxQVXyDRmsD7bzzQq9dHLPmYZA5R3p9lnkH3AAV7E7g18QIHnxu4owY1Eo6ZwqTIZi5d6v3PrM+PHXL+8fWcuLeENGK2j6ocj2yY9/4SS726hWdN16NNYjEZy5No3bsP8lZjcgxcmg5RvnOb27EilnxMRoZ6ZOPjeLM/YFaOSdWkkso3NtIdypvy+d6gvSyH2pO92FFQxrDkvWm4DtdJ1d6vOV4RqI2/tjYyJ0L9QSN7fBzJuKrMHroX0lSflftn2X3gl5T3/U1B0lI2r0iiYfdHkL+adIOy3XyYwvePuTVNyP87CjINrg3Wc+x57SMaALLXUrQAjh6B+QsmAI0c3VJD8tZFxGOlevc/UVLnPCj5L6uO5fW8ykkjR37RQN6cdgo+9P15TVm2hXUzDNw68y+8sq/eR4tQBDcSHj02FlrOcr2PR3NQj6ADjaZ9BXYoJwAl8PtPkMGcR9zm1Zj06pNnecStKiaiXgnCxGIylmdA5Q7KD5QCSrguL0PvFnJ6TMtX016WQ/lJlHDNJXn2Nleb2R+QkQHmvTkewe9iD251G3sfM4o+CPEEn/LeOg5RXqh8OSQWk7G8jGT6IZyzJlGwPAmqv+ad9zoBGPP8YyxdnoMxvgz7R6eEsurk4ZjnH2NpOt4B/pyVRKI4dSnAMeNzmRVvprYwh3aUsF7+Ad39MkI2kL5iNU1HNlJ4AiVkF7Eq+xg7TyhNsteSz0cUbnGk5zxWbV1EwZpmVYBPYP6sc+zZUsP8rY8z8+XHadi9g4781aTPn0dJ3THn66LO7aDQkcTZayla8XfgJ5wLv40jb/EdEsL+vn2ImcKkSBuXmgOMhHWJTOqx1BEaR2A6ShihlDIkbLUhqFJGxJJlmPQ2zHvV/5BLsex0jU6N8zKIsFVSq4QyQPeBfZhtYExZ77Y/t9HoyfO0AxExea7jxRiBdrr9DljWY8rQ0125TxXcpVhKK+nGRMzsYN6VYnau/QtHPWKv34i5ybvf4ZA2P4lRtjr+pIQyQMt7VVTZID5ZmdGRFclIoKnWNaOj5exVbhKJ0WMIXTC2C6xRnAz4BeI+G6X9WC8+pxA0HdnoCuETNTQBUTFJrgYntvOGW2oeo9YMRMW6BWZTuTKCxoC+4yuvoE3If5x46zlK1E+cOEy11UBCZhI+XRrOLSxk+ilnfLdvK+tefDkMo2XHSLiHk36xD6ELw0m/OfNynX88OcJZ3DuCGjFHROvBVkm73/9X84iIgu66Co8yQintdcswJY0jAoIuMXQf+IL2jFySi8rwWcJIHEcENlorS91fWF9Bqy2DmJg8wOM5P+xfAnrlWB5sofW7Z5GMeRBuNrTgPomuk/MNnUxLiGQM0FLRya3ljqBWRszTxzGKFk57vK2E0R1AVODD2trd30P9VbrJUL4Mg/ucwsuz/KCwuj/ouOJ6ZGtr9NpLfLQBDJkUbM30PkT0BMBXPWOABDUSjmVSgp6uht6d9HNQj3IlgIcGjc7K2EZt4TacZYblZZjoz7pvP89vDlkn7TaIHz+NF95zbavaW8V5j5YN16MgundH6W4dzFBu5OiW7XyubJ2zppj5PXy/+KSuTQctitZApZ8wcIyEA85JjoljNM2c78NJv2CFWtIQgyuoUkZ3mw30RiL8tiiluwMikrI82uRhTNJDx9VejjpLsbyRQ3nhDveSSP1VutETk5Hn3jwxixh9aIHT3doOGIkYkHm7nbTcgFEJYxjjtj2StIRIuNFpHx/nJTFN30LZ82XKvGj73Gj3k4N2e67pwNDB7FDKEsovDpulL++ltyYQZQDbucPOUO6tpjYrGIw+TpAGMOkOI9Fxpd9O7EJoJ/0sYTvp1xMpadw7ghoxO0sLm4tVsx7yiFuVRbtSZ26/YIacDJKX5FHpPPmn1KZLtwXYezBM6PXQXWdWHm+jtSmX5IxlxFWWuk7+5Sl17lD+0Z08hHnWakxBngybs6aY+SZ8zjQIxvnaFnLmJfHz51vY4zz5N41p+k6qStUFjkjGZMF5H2Hs5kMD9Yst/GTWD3AymOly60lenkFE0yG/J1YDs59wi8ejlhy0RjqsEK8qNTg/U2vAF3ppKPmKpsxFzH95KU1BjpqLplrAmuC3rWNWBo1HWPfO8dA65KBMfws4EtYlMmmMjUvl4Tvp5496pOxv5NyXwJZRePgFWcrYRm2hWZn14KjF2mu/zpHwyd9SbikmY/lqZmWsVjb2rkTgOXUNoLtyhzPwAdp35lCpzPpwTpjznHanzBRxjeJdtWTX/kqxvAFsXu1VZ/YunSQxJsDPbfvMiUjXBr2jFKGa4lZaxTtNkyhY/piqTNFC2fOqMkVpFWXJOeQsz2Hacvdj3Kz+2hnojvd07jLkzbhOEX6u+tNnqP7e7O+9XPVZen9OOMtHXp9pUmxPFe0e1FFSco6EFYso2rrIvsl8mD3nHqfAz/k6/46xcwv2GR1udWY/U+Zmt7MgwNRCgO+aOwADTEhhIcf5LNQuEdz0N3up43uu96W4rAg0+8LXNl9tJVy15UcpU2f8ZbA7IdzZA77TPawJMGUOGwdLLhBzZhpZHheZGFeVkRzV+/ndQ8cP7Nldxcy2FFIDXvmXyHP/+DfMGGnm4IvvhR7MukQemTWFroD3vLDfF0PX8AX/Eab6crChLO4NcuWfBsUYIwNs76TFq7yhZ/HBOEbOqKJi8w/93b17UlFxFTMNcZT2dDn2/AXMGAm3zhzp1Wg5qOlvykm/vlzp50mu+BtaZMSsSZHMLX6MaZ4ZYqvjo42X8Hu/Oh93l5MRM8HdXS75aV5dk8FI4NKfXmbb0QHsnxAeJJiFEEJjpJQhhBAaI8EshBAaI8EshBAaI8EshBAaI8EshBAaI8EshBAaI8EshBAao9HbfoaL51JX/Xx7z7xpvDBPdd841QokA8LHBSZD3nNXqZkznDdX+L//RX/STXqCR2K/5z9O1fu/k5wukUdmPURz+RcBb5ovhMMQD2bHfZ1dS1H1q9Iq3ikF55V7/Xw4N7PbqVhsof7gjD6EsuOLzNd6jhr14WhOzali025gwMPZfqP769UBQhkYnTgFXcvZXoeybtITPJKgh5azfP6fPu5GFzOdOemxqg3NnD8WvjUExcCTUsaQYOPgugY4M43FH/ZuD8ZVZcwqSsNW2f83bQ+vByhYkUK9oYE1A32fEOWeF80Bl4WKJXYMXL/Wi9t76hJ5ZF4uaXzvP2RjpjMnPZJL5a5Vss+32G+SNDr0IwqNkGAeAoqKL5BoTeD9N4K5H7O3iCUf21fS1tQqLqFw3MTJzJ5+WsfQ1zFNibF0NXwX+Paek6Ywuldr+sWSNushmssPBbwDna91Be1fApHodKEeU2hFSKUM9/sk+/q561nT9WiTWEzG8iRa9+6DvNWYHDfp8bznL47Sg/ouPj6ON/sDZuWYVE16f7Mez3tA998yVuBcBdv5uNPHrTw92/hrayMzwD2GjavK7KF7IU31Wbl/lt0Hfkl539+Uwns9P9u5HR6Lr6puju/BrW3SUjavyMT5f0GgZaSUksbMX9jgpK87yDlu52nlzPtb+bA29HfmRhdLbKSN5kArYAe5kolvzZw/FuQoO1KPDtcxdHr7XQi7pJ59zwoymJW19/Tqk2d5xK0qJqJeCULlZuuobsIeodzIXu8WcnpMy1fTXpZD+UmUcM0lefY2V5vZH5CRAea9OX7rnI6asatNnnIj/w9CPMGnvLeOQ5Qr9Wj7eykjmX4I56xJFCxPguqvece5gsljLF2egzG+DPtHp4Sy6uSh33sxP2clkShOBVrDLj6XWfFmagtzaEcJ6yBXbAnVnDVLoWQjhY4czl5L0YLVrGp1rXZiD2XVmn9KAKMO5ey1FC0wUr17o/OG93PWFFPwMn7C+QFO1kYxM/kuBdDvtebRiVPQdX4X+Eb3MVOYFGnjUsDw7pvr9d/RNWsKj8wbZa8rx0znkQQ9XQ3npMZ8DwuqlOFcImqv+h9yKZadrtGpcZ6yrJNqZYzuA/vc1+pTuI1GT56nHZQVm5XjxRiBdrr9nnxajylDT3flPlVwl2IpraQbEzGh/JydnWv/wlGP2Os3Ym7y7nc4pM1PYpStjj+pViFpea+KKptjVWwgK5KRQFOta0ZHy9mr3CQSo8cQumBsF1ijOBnwC8R9Nkr7sV58TkH6/H2PlUNO1NAERMU4lidRVoEx17jW/Ks7TYMV9NETnG3yZ03Adu4jt319fvQcNkMSD/tZ6STw+of1fPj3L7PuxTCMlh114/oeTvr5KDOEXVc9/3HsCy51xpI2L9dZbw7XDfjF4AhqxBwRrQdbJe1+gzKPiCjorqvwKCOU0l63DFPSOCIg6BKDc43BojJ8ljCUxURbKz0WXa2voNWWQUxMHhDcgqz2LwG917JSANhC63fPIhnzINxsaPG4p3In5xs6mZYQyRigpaKTW8sdQa2MmKePYxQtnPZ4WwmjO6CnxZ5s7e7vof4q3WQoX4ZhXinbs/zg6ILzv+po6QBMqczhmDJifpQEAzSVO9ZQtC/Yqs9cTVEmXqLG41gucFDoJk2xr24dqG6sS2TSGLhe3c9r+ikrpuhazvL5qWb7DI5ZuUzyN4ND3BM0Ol3OMc1NKTMo68/1X923n+c3h6yTdhvEj5+mWhewk6q97ktNATRcj4Lo3h0llNXEg+IIZbeFau2Lt6q/OprarGCawPytxcxXttnO7fBa2NVXbbpnA7QCdg+lAsdKJgHDOwx9MaUroayEcNelL/jcNp056dNJiwm0vJXQsuBWyW6zQbwxwOixlO6O1UQkZRFBqapNHsYkPXRc7eWosxTLG6VYHAGdsh5ObnOO+GIy8rDUqxcVzSJGH1rgdLe2A0YiEoF+n7fbScsNmJYwhjGoVyKJJC0hEm502rflJTFN3+K15p8ve67p2DSjg9mzjewJNpAcvzgsvXwb/ow3osdK9dFAq4fPY36moYcVtr1X0g6Go6wTzGrZvdbvJ/1CEYkhErqaO903d96ki1jfLxH3hKBqzN0HvqAdE8mbi1UrKSsn/5RH7RfMoM8geYmqVuyoTR/bRt+Y0Ouhu82sPN5GaxNEZCwjLlHVnzx7ndscyojp5CHMNj2m5R+oZpP4N2dNMUVbiylaMy+kd+BwvrYF9En8/HnXun5jnp/GNH0nVUfVBY5IxmQFscMPDdTTwU9mBTuHdz3JyzOIaPqilxeQzGPVVvtnsCrb46kr7dgw2EsNzraLfMwsUdecfamjpLwRTIvYnB/s0tk/MDu5A9qG+Tnxl8hz//ga7779Guvn+2wQFPvFIj3UjWOmMCkyvGv6+dZMcwvoEjIxqabGjU6cgq7H+dVCy0JYWsoxM8Px2Fft1z4zwxXeHiUC5flut5KEfYpdROUOKpUTh55T1wC6Vc87eE2p85x259Uff/vzfG923qUT1VQwt5/rdvaZE74WUvWY4qbMzBjlfN57dJz2Sg454/Fys/pr9rznPkIqKj5D3sQ4n5diB/VZBvicvD5TVQ3Z16g3If/vKMh0zZVrOrKDjlmrSajznHExAS+e0+F8tfM3Ze65q9Qs7uLUu4kU+PliXvjCayyeADQeYd07x303Csh+4QYBV8CG0T/NJY2+13hH/zSXtDG+nrFxSXV5t3c7ufLvXidr/mmQPeA7vcLa75Q5bBwsuUDMmWlkeVxkornFWJVg7/AMdV9T5oLm//27cSy42stgtl8a3Rk49JSTcV09hLcQgciVfxoUY/Q16nZs76SlwvMZx5VvVVQM9GXJoRpv9Jqxod7e0RpqKP/Ant3BXfm4MDeDkVg5c6g3o2XHSb8ervRTTvqFfqWfEC4yYtYk5SZIXnPO6vho4yX83q/Ox93lNDdixrvcYWelerfHHOhgBHF3uSnLtrBuhgEwc/DF9/gs9C4LMaAkmIUQQmOklCGEEBojwSyEEBojwSyEEBrT45V/Dxp9TqQUQgjRT2TELIQQGqPRmxgJIRymZT4cdNuqc9/0Y0/EQJFgFuIe4Bm40zIf9rlNDA1DPJhXMv7FbFyXMli48vYmrP11uCcnsvxx1x0wuHqZvdtv9tfRvOXXUT4f/u/qJLYO3FEHV34d5TN1vLvhIT4ahMOPGJtGclQ7tTVXue230TiSU43cqDlPs99GQrgM8WDexZW3dwEwfNEuElL7+XCfXmbvpwAjmPlKMin9fDg3M7/nyPzvuHz0yT6EsuOLrIvWf1vJ9cYw9q+/lMRzZuYx1r0FDHg4P8jYcSO4eSlAKAOjxj3EiBv1fQplX6NhGSEPXUM8mO8XHfyhoBKq5/Hrkt7twfDMPsaPs9Ba04Whv7/Awmo46zbM4g87yln+v6L56P8bPnCHfjCaUdzg8o2AjYh6EG5eCtioR1LKuL/IrIwhYMv/W85EWwZ7exlKwxftYjwnqOnPMk+/iuLXR6dgSD/PuzMH6pgjiB33ILevWghUrBoxNo5Rt7/nWt9yWdxnQhox20dVjke+fu561nQ92kzYQsKvJnHr3z6GhcuIcdxE7eoJavbvcjuWvfSguvu3r+M9+iapj8e5Hneep2HnVu6E8qZ8vjewfrWMK6d7saOgjGLhqxNxHe42F0prOXUuUBt/bTv4aTxcPur7Z7zhmX320G2YrPqs3D/LO4dXUtP3N6Uw8eTzT5OqvkFeZw0l7x3ErG6WtYwNTzzkevz9F7z10Sn7f09YzJr8VCL5ni//eR+Om+mZnvxb8n8SSed//ZH3P3Xbm7OkMWN+B5zytQZiPPkv5pGu76R6305K+rrMyYgoHhxxmxs3AtUnRjAqagS3OzoCljqCIaWM+0uQwfwko1ctIyZSffLsSUY/s4XhjUoQTthCwq/SoGYfNYc/BZRw/dU+RriFnI6YXy3D+tUyak6jhGs24x/d5Wrz6JskpELrvy3zW+d01Ixdbex9THjxzRBP8Cnv7dYJapR6tP297GM8/RDOmbHk5Y2FC7Xs/Vf7P1fjb5J5Km8ao8ZV8dmn4Axl1clD42+SeSoF7wDPb2MiYznTFOCY47JJHWfhytvLsKKE9a/e5E4/jJCzlj5NKjWU/LNHEKvYA/YmX/5zsRK69jDfsBR7ODce5P0SWJOfys+WzqTio1MwYTFP+gtlAIZT3jCWGQndLCWq32vNo8Y9xIjb33MzUOI+GMfYEbe5FjC8e+ZrCpyvUoYYOoIqZQxf9EtiIrto/Tf1P+RPub7fNTo1zEpjeOd5LEooA9w5/DGtnWBIWOm2P7fR6OmLWIFhxiddxzNGAR3c8XvyaSUxqTru1HysCu5Puf7Zee4Qx6hHg3lXikez7V846hF741Zar3r3OxwmPz4Wfdc1/v1fXf9Y2/+1kQtdMC5BmdGROQIDcLXB9SO5/dsb2BjBKI8h9NIxt8A2lvJTgY7qPhvFWt6LzykoJqJHATev+w1lmMnjP4nk+y9cI2Ew8+nZ7+GhRJyraTUe5P0vvoeHnuDXWSaefDKVyO+/8BPKdh+1jAT9NWb5LGc0UfL22xQWhWG07KgbX+3hpF/Ug3DDIjMxRMiCGjEPe1AHneex+g3KJxk+Eu6YKz3KCJ9iNf+SGFMMwyHoEsOdw6expmYz/sV9+CxhTIhhGF3cqvnU/YWNldzqTGOk8UnA4zk/7F8COuVYHjpD63fPRhA9Cmzmmx4rct/mO/NtUkwjMHKT9nO3seY5gloZMU99ED03qfJ4WxOjrgFjAx+28wZ31Y8bW7mL48swuM8pOPaATX3iCTb87gnfJYwJoxkFRD6xkQ1PeHWU6AmA4++6Yh8l0X9L/hNP8xDf8+V7Ab99BsyIsXE9n/QbMY6xYTjpF6hc4e85GUnf+zQ6K8MxzU0pM/xqHzH0Z923n+c3h+wON7tg3LiJLH/Vse02F0ovc9Gj5eWOseCrpBqEu+3hDGVFxT7eqsBZJ87/XSp41IoBvv+imD94rcTibdyDjmL1KPfQ9mskV/s1v5W68dX6wCf9HjQy4vb3NPbxpF+oZQypOw8NQZUy7t7ogsgHGea3xafcuQXDTRm4zwt4EoNJB7daeznq/JTrO5dR8/Y+95JIYyt30TEy9Un35hMyGBkZWuDcae8AohjuY23Q8LtN203Qm0Z5rMg9gimmEXDztn0k/eRYUnQ3+eqVKvY6/3ieHLQL/PPdD+UXx+2+rRUaWONB3v/nYt4qqaGTh0hw1Cgar3MTGBVt6nEXpif/lp891ElNSTFffh9J6pOLCfQqe1lHx+Vw9N+fAT7p50lqy/eHoIL5zuHTWIlj/KotquBVTv4pj6wNFohMI26RqlbsqE2X76Jv4hgRCXduWJTHu7h5FYan/pLRzkB9ktEL7XXu1lBG1adP0NqpI+ZXb+K52JEvWUs3suF3G9mwtHfzsi423ATdWP7qNyOc24y/mUCK7jYXvlKPwYYTnRnEDkuiucw1kh8O9qtvJeN/lcbwq6d7eQHJTH79O/tn8OusnlszdhSRdHLzmmPDKb766h/8cAAAApdJREFUr04if/J04Nc7T/Yd5NNGqPjoC76PTCXf7+d+h1kJ16Ajws+Jv3jyX3yRosIXWfV4EP32w36xSA914wfjGDviBteuhTeWJZTvH0GWMnZx5W2LMuvBUYu1136dcXB6EzXNW0j41TJSU5cpG3tXIvCcugZwp2YfDaoTi9b9y2hQZn3EODZ6TrtTZoq4vkxctWTX/j7l+k5g1TKvOrN36UQ5ueWHfeaEK3DROUoRqilun15m79VY8vKSVWWKm3z1iqpM8ellvkqYxuN500jJcz+G7UItpf+q/gcfxX82wS/Sm9iCn0uxI9NUf2/2916j+iy9Pyec5SPvz9ReI/ZtJr/+3RM85Latk5qS/82nqi8B86f/mxL+lnzPOrNjypxjKl1nDSXOk32n+MMXiWx44gnX7A21/CZm6MdypsRfXaeJlpuAHuKTH4WvelMTC+5iEftJv8CljlA4yhOByhdV576R4B5CelzzT+7HPPDsAX/HPawJMGWODv6wo5zo6nks8LjIxPDMPsaP7P387nuD//fvJiGXzctS0Fu+onB36ME8YmwayeNuc/lcgNAdMY7k1Ie4c+mbHq4I7FlPgezZVkJ56JAr/zQoetSIANvv0OZVa3Zc+XaMI/9r6Mavb3d4963grnyck52Cnk6qT/RmtOw46dfDlX7KSb9wXOlXde6boMNWQnlo0eisjPvbxe21RL+SzOOvTsOtHNp1jU9eafaYaqcoSWIWUD4/QEljKMpvYgYZAe8ul/A/V1GQHglc5WjRfj7v1YFu01zzDT2dL7197TxV13poJEQPpJQhhBAaI6UMIYTQGAlmIYTQGAlmIYTQmB5P/t1obxmIfgghhFDIiFkIITRGglkIITRGglkIITTm/wcdLaKo/00+TgAAAABJRU5ErkJggg==;" parent="1" vertex="1">
                    <mxGeometry x="417.41" y="870" width="305.18" height="260" as="geometry"/>
                </mxCell>
            </root>
        </mxGraphModel>
    </diagram>
</mxfile>